<?xml version="1.0" encoding="UTF-8"?><svg id="Capa_2" xmlns="http://www.w3.org/2000/svg" width="5990.65" height="4672.5" xmlns:xlink="http://www.w3.org/1999/xlink" viewBox="0 0 5990.65 4672.5"><defs><style>.cls-1{fill:none;}.cls-2{fill:url(#Nueva_muestra_de_motivo_2);}</style><pattern id="Nueva_muestra_de_motivo_2" x="0" y="0" width="652" height="437" patternTransform="translate(-2059.41 5228.68)" patternUnits="userSpaceOnUse" viewBox="0 0 652 437"><rect class="cls-1" width="652" height="437"/><path d="M601.77,316.43c1.57,10.37,6.02,19.35,12.79,27.15,0,0,22.06,25.38,22.05,25.38,6.5,7.48,9.73,15.82,11.51,25.29,2.77-13.68-1.92-26.17-10.68-36.04l-19.7-22.23c-4.06-4.58-7.39-9.66-9.01-15.48-.36-1.3-.64-2.64-.82-4.02-1.04-7.94,1.69-15.38,7.56-19.72.73-.54,1.51-1.04,2.34-1.48,7.47-3.97,16.75-3.34,22.93,2.92,4.15,4.19,6.27,9.88,5.15,15.28-1.1,5.27-4.67,10.42-10.22,12.07-6.04,1.8-11.69-.72-14.43-5.09-3.61-5.75-1.75-11.68,2.93-16.38-5.76,2.41-8.73,9.24-7.62,14.59,1.26,6.06,5.78,10.51,12.04,12.12,6.87,1.76,13.96-.86,18.37-5.9,4.62-5.32,6.73-12.63,4.62-20.12-3.49-12.29-15.93-19.99-28.83-18.88,7.1-9.99,14.57-20.05,16.32-31.38-3.8,8.34-7.87,15.82-13.79,23.03l-7.54,9.17c-4.49,1.04-8.59,2.88-12.2,5.38l21.9-24.91c10.49-11.93,16.85-26.57,16-42.58-6.58,35.44-40.73,49.65-57.51,78.31-8.22,14.05-9.43,31.58-1.89,46.18,2.36,4.56,5.45,8.82,8.19,13.17,4.03,6.4,8.14,12.65,12.62,18.72,3.45,4.67,6.91,9.34,10.36,14.01,2.35,3.17,4.81,6.29,7.05,9.54,17.31,24.68,16.44,50.49-6.2,72.36,24.26-11.53,33.74-39.16,22.01-63.77-14.2-29.75-46.64-46.77-50.61-82.09.13-4.63.97-9.24,2.5-13.82-.23,1.42-.4,2.87-.48,4.34-1.39,24.64,17.67,44.4,33.03,61.34,13.55,14.94,24.24,27.31,24.91,48.29,17.45-51.81-52.44-71.94-45.63-114.75Z"/><path d="M603.97,274.08c16.74-15.58,37.39-33.67,38.09-58.34.53-18.51-11.32-34.57-29.41-38.19-13-2.6-26.48,4.04-31.08,16.24-2.73,7.28-1.24,14.75,2.91,20.43,3.96,5.4,10.81,8.6,17.8,7.43,6.38-1.07,11.25-5.13,13.02-11.06,1.56-5.23-.83-12.29-6.36-15.18,4.27,5.08,5.62,11.15,1.54,16.57-3.11,4.13-8.94,6.16-14.82,3.85-5.39-2.11-8.51-7.53-9.16-12.88-.67-5.47,1.93-10.96,6.41-14.8,6.69-5.72,15.99-5.56,23.09-.97,7.11,4.58,10,13.16,8.08,21.96-1.62,7.43-6.01,13.44-11.44,18.6l-21.5,20.48c-9.56,9.1-15.29,21.15-13.68,35.01,2.57-9.28,6.49-17.32,13.6-24.23h-.01s24.12-23.43,24.12-23.43c7.41-7.2,12.6-15.77,15.03-25.97,3.18,43.23-68.16,57.4-55.14,110.49,2.44-20.85,14.13-32.28,28.89-46.02Z"/><path d="M702.23,317.37c-1.57,10.37-6.02,19.35-12.79,27.15,0,0-22.06,25.38-22.05,25.38-6.5,7.48-9.73,15.82-11.51,25.29-2.77-13.68,1.92-26.17,10.68-36.04l19.7-22.23c4.06-4.58,7.39-9.66,9.01-15.48.36-1.3.64-2.64.82-4.02,1.04-7.94-1.69-15.38-7.56-19.72-.73-.54-1.51-1.04-2.34-1.48-7.47-3.97-16.75-3.34-22.93,2.92-4.15,4.19-6.27,9.88-5.15,15.28,1.1,5.27,4.67,10.42,10.22,12.07,6.04,1.8,11.69-.72,14.43-5.09,3.61-5.75,1.75-11.68-2.93-16.38,5.76,2.41,8.73,9.24,7.62,14.59-1.26,6.06-5.78,10.51-12.04,12.12-6.87,1.76-13.96-.86-18.37-5.9-4.62-5.32-6.73-12.63-4.62-20.12,3.49-12.29,15.93-19.99,28.83-18.88-7.1-9.99-14.57-20.05-16.32-31.38,3.8,8.34,7.87,15.82,13.79,23.03l7.54,9.17c4.49,1.04,8.59,2.88,12.2,5.38l-21.9-24.91c-10.49-11.93-16.85-26.57-16-42.58,6.58,35.44,40.73,49.65,57.51,78.31,8.22,14.05,9.43,31.58,1.89,46.18-2.36,4.56-5.45,8.82-8.19,13.17-4.03,6.4-8.14,12.65-12.62,18.72-3.45,4.67-6.91,9.34-10.36,14.01-2.35,3.17-4.81,6.29-7.05,9.54-17.31,24.68-16.44,50.49,6.2,72.36-24.26-11.53-33.74-39.16-22.01-63.77,14.2-29.75,46.64-46.77,50.61-82.09-.13-4.63-.97-9.24-2.5-13.82.23,1.42.4,2.87.48,4.34,1.39,24.64-17.67,44.4-33.03,61.34-13.55,14.94-24.24,27.31-24.91,48.29-17.45-51.81,52.44-71.94,45.63-114.75Z"/><path d="M603.97,493.26c16.74-15.58,37.39-33.67,38.09-58.34.53-18.51-11.32-34.57-29.41-38.19-13-2.6-26.48,4.04-31.08,16.24-2.73,7.28-1.24,14.75,2.91,20.43,3.96,5.4,10.81,8.6,17.8,7.43,6.38-1.07,11.25-5.13,13.02-11.06,1.56-5.23-.83-12.29-6.36-15.18,4.27,5.08,5.62,11.15,1.54,16.57-3.11,4.13-8.94,6.16-14.82,3.85-5.39-2.11-8.51-7.53-9.16-12.88-.67-5.47,1.93-10.96,6.41-14.8,6.69-5.72,15.99-5.56,23.09-.97,7.11,4.58,10,13.16,8.08,21.96-1.62,7.43-6.01,13.44-11.44,18.6l-21.5,20.48c-9.56,9.1-15.29,21.15-13.68,35.01,2.57-9.28,6.49-17.32,13.6-24.23h-.01s24.12-23.43,24.12-23.43c7.41-7.2,12.6-15.77,15.03-25.97,3.18,43.23-68.16,57.4-55.14,110.49,2.44-20.85,14.13-32.28,28.89-46.02Z"/><path d="M438.77,425.68c1.57,10.37,6.02,19.35,12.79,27.15,0,0,22.06,25.38,22.05,25.38,6.5,7.48,9.73,15.82,11.51,25.29,2.77-13.68-1.92-26.17-10.68-36.04l-19.7-22.23c-4.06-4.58-7.39-9.66-9.01-15.48-.36-1.3-.64-2.64-.82-4.02-1.04-7.94,1.69-15.38,7.56-19.72.73-.54,1.51-1.04,2.34-1.48,7.47-3.97,16.75-3.34,22.93,2.92,4.15,4.19,6.27,9.88,5.15,15.28-1.1,5.27-4.67,10.42-10.22,12.07-6.04,1.8-11.69-.72-14.43-5.09-3.61-5.75-1.75-11.68,2.93-16.38-5.76,2.41-8.73,9.24-7.62,14.59,1.26,6.06,5.78,10.51,12.04,12.12,6.87,1.76,13.96-.86,18.37-5.9,4.62-5.32,6.73-12.63,4.62-20.12-3.49-12.29-15.93-19.99-28.83-18.88,7.1-9.99,14.57-20.05,16.32-31.38-3.8,8.34-7.87,15.82-13.79,23.03l-7.54,9.17c-4.49,1.04-8.59,2.88-12.2,5.38l21.9-24.91c10.49-11.93,16.85-26.57,16-42.58-6.58,35.44-40.73,49.65-57.51,78.31-8.22,14.05-9.43,31.58-1.89,46.18,2.36,4.56,5.45,8.82,8.19,13.17,4.03,6.4,8.14,12.65,12.62,18.72,3.45,4.67,6.91,9.34,10.36,14.01,2.35,3.17,4.81,6.29,7.05,9.54,17.31,24.68,16.44,50.49-6.2,72.36,24.26-11.53,33.74-39.16,22.01-63.77-14.2-29.75-46.64-46.77-50.61-82.09.13-4.63.97-9.24,2.5-13.82-.23,1.42-.4,2.87-.48,4.34-1.39,24.64,17.67,44.4,33.03,61.34,13.55,14.94,24.24,27.31,24.91,48.29,17.45-51.81-52.44-71.94-45.63-114.75Z"/><path d="M440.97,383.33c16.74-15.58,37.39-33.67,38.09-58.34.53-18.51-11.32-34.57-29.41-38.19-13-2.6-26.48,4.04-31.08,16.24-2.73,7.28-1.24,14.75,2.91,20.43,3.96,5.4,10.81,8.6,17.8,7.43,6.38-1.07,11.25-5.13,13.02-11.06,1.56-5.23-.83-12.29-6.36-15.18,4.27,5.08,5.62,11.15,1.54,16.57-3.11,4.13-8.94,6.16-14.82,3.85-5.39-2.11-8.51-7.53-9.16-12.88-.67-5.47,1.93-10.96,6.41-14.8,6.69-5.72,15.99-5.56,23.09-.97,7.11,4.58,10,13.16,8.08,21.96-1.62,7.43-6.01,13.44-11.44,18.6l-21.5,20.48c-9.56,9.1-15.29,21.15-13.68,35.01,2.57-9.28,6.49-17.32,13.6-24.23h-.01s24.12-23.43,24.12-23.43c7.41-7.2,12.6-15.77,15.03-25.97,3.18,43.23-68.16,57.4-55.14,110.49,2.44-20.85,14.13-32.28,28.89-46.02Z"/><path d="M539.23,426.62c-1.57,10.37-6.02,19.35-12.79,27.15,0,0-22.06,25.38-22.05,25.38-6.5,7.48-9.73,15.82-11.51,25.29-2.77-13.68,1.92-26.17,10.68-36.04l19.7-22.23c4.06-4.58,7.39-9.66,9.01-15.48.36-1.3.64-2.64.82-4.02,1.04-7.94-1.69-15.38-7.56-19.72-.73-.54-1.51-1.04-2.34-1.48-7.47-3.97-16.75-3.34-22.93,2.92-4.15,4.19-6.27,9.88-5.15,15.28,1.1,5.27,4.67,10.42,10.22,12.07,6.04,1.8,11.69-.72,14.43-5.09,3.61-5.75,1.75-11.68-2.93-16.38,5.76,2.41,8.73,9.24,7.62,14.59-1.26,6.06-5.78,10.51-12.04,12.12-6.87,1.76-13.96-.86-18.37-5.9-4.62-5.32-6.73-12.63-4.62-20.12,3.49-12.29,15.93-19.99,28.83-18.88-7.1-9.99-14.57-20.05-16.32-31.38,3.8,8.34,7.87,15.82,13.79,23.03l7.54,9.17c4.49,1.04,8.59,2.88,12.2,5.38l-21.9-24.91c-10.49-11.93-16.85-26.57-16-42.58,6.58,35.44,40.73,49.65,57.51,78.31,8.22,14.05,9.43,31.58,1.89,46.18-2.36,4.56-5.45,8.82-8.19,13.17-4.03,6.4-8.14,12.65-12.62,18.72-3.45,4.67-6.91,9.34-10.36,14.01-2.35,3.17-4.81,6.29-7.05,9.54-17.31,24.68-16.44,50.49,6.2,72.36-24.26-11.53-33.74-39.16-22.01-63.77,14.2-29.75,46.64-46.77,50.61-82.09-.13-4.63-.97-9.24-2.5-13.82.23,1.42.4,2.87.48,4.34,1.39,24.64-17.67,44.4-33.03,61.34-13.55,14.94-24.24,27.31-24.91,48.29-17.45-51.81,52.44-71.94,45.63-114.75Z"/><path d="M537.03,384.27c-16.74-15.58-37.39-33.67-38.09-58.34-.53-18.51,11.32-34.57,29.41-38.19,13-2.6,26.48,4.04,31.08,16.24,2.73,7.28,1.24,14.75-2.91,20.43-3.96,5.4-10.81,8.6-17.8,7.43-6.38-1.07-11.25-5.13-13.02-11.06-1.56-5.23.83-12.29,6.36-15.18-4.27,5.08-5.62,11.15-1.54,16.57,3.11,4.13,8.94,6.16,14.82,3.85,5.39-2.11,8.51-7.53,9.16-12.88.67-5.47-1.93-10.96-6.41-14.8-6.69-5.72-15.99-5.56-23.09-.97-7.11,4.58-10,13.16-8.08,21.96,1.62,7.43,6.01,13.44,11.44,18.6l21.5,20.48c9.56,9.1,15.29,21.15,13.68,35.01-2.57-9.28-6.49-17.32-13.6-24.23h.01s-24.12-23.43-24.12-23.43c-7.41-7.2-12.6-15.77-15.03-25.97-3.18,43.23,68.16,57.4,55.14,110.49-2.44-20.85-14.13-32.28-28.89-46.02Z"/><path d="M277.97,492.58c16.74-15.58,37.39-33.67,38.09-58.34.53-18.51-11.32-34.57-29.41-38.19-13-2.6-26.48,4.04-31.08,16.24-2.73,7.28-1.24,14.75,2.91,20.43,3.96,5.4,10.81,8.6,17.8,7.43,6.38-1.07,11.25-5.13,13.02-11.06,1.56-5.23-.83-12.29-6.36-15.18,4.27,5.08,5.62,11.15,1.54,16.57-3.11,4.13-8.94,6.16-14.82,3.85-5.39-2.11-8.51-7.53-9.16-12.88-.67-5.47,1.93-10.96,6.41-14.8,6.69-5.72,15.99-5.56,23.09-.97,7.11,4.58,10,13.16,8.08,21.96-1.62,7.43-6.01,13.44-11.44,18.6l-21.5,20.48c-9.56,9.1-15.29,21.15-13.68,35.01,2.57-9.28,6.49-17.32,13.6-24.23h-.01s24.12-23.43,24.12-23.43c7.41-7.2,12.6-15.77,15.03-25.97,3.18,43.23-68.16,57.4-55.14,110.49,2.44-20.85,14.13-32.28,28.89-46.02Z"/><path d="M374.03,493.52c-16.74-15.58-37.39-33.67-38.09-58.34-.53-18.51,11.32-34.57,29.41-38.19,13-2.6,26.48,4.04,31.08,16.24,2.73,7.28,1.24,14.75-2.91,20.43-3.96,5.4-10.81,8.6-17.8,7.43-6.38-1.07-11.25-5.13-13.02-11.06-1.56-5.23.83-12.29,6.36-15.18-4.27,5.08-5.62,11.15-1.54,16.57,3.11,4.13,8.94,6.16,14.82,3.85,5.39-2.11,8.51-7.53,9.16-12.88.67-5.47-1.93-10.96-6.41-14.8-6.69-5.72-15.99-5.56-23.09-.97-7.11,4.58-10,13.16-8.08,21.96,1.62,7.43,6.01,13.44,11.44,18.6l21.5,20.48c9.56,9.1,15.29,21.15,13.68,35.01-2.57-9.28-6.49-17.32-13.6-24.23h.01s-24.12-23.43-24.12-23.43c-7.41-7.2-12.6-15.77-15.03-25.97-3.18,43.23,68.16,57.4,55.14,110.49-2.44-20.85-14.13-32.28-28.89-46.02Z"/><path d="M-50.23,316.43c1.57,10.37,6.02,19.35,12.79,27.15,0,0,22.06,25.38,22.05,25.38,6.5,7.48,9.73,15.82,11.51,25.29,2.77-13.68-1.92-26.17-10.68-36.04l-19.7-22.23c-4.06-4.58-7.39-9.66-9.01-15.48-.36-1.3-.64-2.64-.82-4.02-1.04-7.94,1.69-15.38,7.56-19.72.73-.54,1.51-1.04,2.34-1.48,7.47-3.97,16.75-3.34,22.93,2.92,4.15,4.19,6.27,9.88,5.15,15.28-1.1,5.27-4.67,10.42-10.22,12.07-6.04,1.8-11.69-.72-14.43-5.09-3.61-5.75-1.75-11.68,2.93-16.38-5.76,2.41-8.73,9.24-7.62,14.59,1.26,6.06,5.78,10.51,12.04,12.12,6.87,1.76,13.96-.86,18.37-5.9,4.62-5.32,6.73-12.63,4.62-20.12-3.49-12.29-15.93-19.99-28.83-18.88,7.1-9.99,14.57-20.05,16.32-31.38-3.8,8.34-7.87,15.82-13.79,23.03l-7.54,9.17c-4.49,1.04-8.59,2.88-12.2,5.38l21.9-24.91c10.49-11.93,16.85-26.57,16-42.58-6.58,35.44-40.73,49.65-57.51,78.31-8.22,14.05-9.43,31.58-1.89,46.18,2.36,4.56,5.45,8.82,8.19,13.17,4.03,6.4,8.14,12.65,12.62,18.72,3.45,4.67,6.91,9.34,10.36,14.01,2.35,3.17,4.81,6.29,7.05,9.54,17.31,24.68,16.44,50.49-6.2,72.36,24.26-11.53,33.74-39.16,22.01-63.77-14.2-29.75-46.64-46.77-50.61-82.09.13-4.63.97-9.24,2.5-13.82-.23,1.42-.4,2.87-.48,4.34-1.39,24.64,17.67,44.4,33.03,61.34,13.55,14.94,24.24,27.31,24.91,48.29,17.45-51.81-52.44-71.94-45.63-114.75Z"/><path d="M50.23,317.37c-1.57,10.37-6.02,19.35-12.79,27.15,0,0-22.06,25.38-22.05,25.38-6.5,7.48-9.73,15.82-11.51,25.29-2.77-13.68,1.92-26.17,10.68-36.04l19.7-22.23c4.06-4.58,7.39-9.66,9.01-15.48.36-1.3.64-2.64.82-4.02,1.04-7.94-1.69-15.38-7.56-19.72-.73-.54-1.51-1.04-2.34-1.48-7.47-3.97-16.75-3.34-22.93,2.92-4.15,4.19-6.27,9.88-5.15,15.28,1.1,5.27,4.67,10.42,10.22,12.07,6.04,1.8,11.69-.72,14.43-5.09,3.61-5.75,1.75-11.68-2.93-16.38,5.76,2.41,8.73,9.24,7.62,14.59-1.26,6.06-5.78,10.51-12.04,12.12-6.87,1.76-13.96-.86-18.37-5.9-4.62-5.32-6.73-12.63-4.62-20.12,3.49-12.29,15.93-19.99,28.83-18.88-7.1-9.99-14.57-20.05-16.32-31.38,3.8,8.34,7.87,15.82,13.79,23.03l7.54,9.17c4.49,1.04,8.59,2.88,12.2,5.38l-21.9-24.91c-10.49-11.93-16.85-26.57-16-42.58,6.58,35.44,40.73,49.65,57.51,78.31,8.22,14.05,9.43,31.58,1.89,46.18-2.36,4.56-5.45,8.82-8.19,13.17-4.03,6.4-8.14,12.65-12.62,18.72-3.45,4.67-6.91,9.34-10.36,14.01-2.35,3.17-4.81,6.29-7.05,9.54-17.31,24.68-16.44,50.49,6.2,72.36-24.26-11.53-33.74-39.16-22.01-63.77,14.2-29.75,46.64-46.77,50.61-82.09-.13-4.63-.97-9.24-2.5-13.82.23,1.42.4,2.87.48,4.34,1.39,24.64-17.67,44.4-33.03,61.34-13.55,14.94-24.24,27.31-24.91,48.29-17.45-51.81,52.44-71.94,45.63-114.75Z"/><path d="M48.03,275.02c-16.74-15.58-37.39-33.67-38.09-58.34-.53-18.51,11.32-34.57,29.41-38.19,13-2.6,26.48,4.04,31.08,16.24,2.73,7.28,1.24,14.75-2.91,20.43-3.96,5.4-10.81,8.6-17.8,7.43-6.38-1.07-11.25-5.13-13.02-11.06-1.56-5.23.83-12.29,6.36-15.18-4.27,5.08-5.62,11.15-1.54,16.57,3.11,4.13,8.94,6.16,14.82,3.85,5.39-2.11,8.51-7.53,9.16-12.88.67-5.47-1.93-10.96-6.41-14.8-6.69-5.72-15.99-5.56-23.09-.97-7.11,4.58-10,13.16-8.08,21.96,1.62,7.43,6.01,13.44,11.44,18.6l21.5,20.48c9.56,9.1,15.29,21.15,13.68,35.01-2.57-9.28-6.49-17.32-13.6-24.23h.01s-24.12-23.43-24.12-23.43c-7.41-7.2-12.6-15.77-15.03-25.97-3.18,43.23,68.16,57.4,55.14,110.49-2.44-20.85-14.13-32.28-28.89-46.02Z"/><path d="M48.03,494.2c-16.74-15.58-37.39-33.67-38.09-58.34-.53-18.51,11.32-34.57,29.41-38.19,13-2.6,26.48,4.04,31.08,16.24,2.73,7.28,1.24,14.75-2.91,20.43-3.96,5.4-10.81,8.6-17.8,7.43-6.38-1.07-11.25-5.13-13.02-11.06-1.56-5.23.83-12.29,6.36-15.18-4.27,5.08-5.62,11.15-1.54,16.57,3.11,4.13,8.94,6.16,14.82,3.85,5.39-2.11,8.51-7.53,9.16-12.88.67-5.47-1.93-10.96-6.41-14.8-6.69-5.72-15.99-5.56-23.09-.97-7.11,4.58-10,13.16-8.08,21.96,1.62,7.43,6.01,13.44,11.44,18.6l21.5,20.48c9.56,9.1,15.29,21.15,13.68,35.01-2.57-9.28-6.49-17.32-13.6-24.23h.01s-24.12-23.43-24.12-23.43c-7.41-7.2-12.6-15.77-15.03-25.97-3.18,43.23,68.16,57.4,55.14,110.49-2.44-20.85-14.13-32.28-28.89-46.02Z"/><path d="M601.77-120.57c1.57,10.37,6.02,19.35,12.79,27.15,0,0,22.06,25.38,22.05,25.38,6.5,7.48,9.73,15.82,11.51,25.29,2.77-13.68-1.92-26.17-10.68-36.04l-19.7-22.23c-4.06-4.58-7.39-9.66-9.01-15.48-.36-1.3-.64-2.64-.82-4.02-1.04-7.94,1.69-15.38,7.56-19.72.73-.54,1.51-1.04,2.34-1.48,7.47-3.97,16.75-3.34,22.93,2.92,4.15,4.19,6.27,9.88,5.15,15.28-1.1,5.27-4.67,10.42-10.22,12.07-6.04,1.8-11.69-.72-14.43-5.09-3.61-5.75-1.75-11.68,2.93-16.38-5.76,2.41-8.73,9.24-7.62,14.59,1.26,6.06,5.78,10.51,12.04,12.12,6.87,1.76,13.96-.86,18.37-5.9,4.62-5.32,6.73-12.63,4.62-20.12-3.49-12.29-15.93-19.99-28.83-18.88,7.1-9.99,14.57-20.05,16.32-31.38-3.8,8.34-7.87,15.82-13.79,23.03l-7.54,9.17c-4.49,1.04-8.59,2.88-12.2,5.38l21.9-24.91c10.49-11.93,16.85-26.57,16-42.58-6.58,35.44-40.73,49.65-57.51,78.31-8.22,14.05-9.43,31.58-1.89,46.18,2.36,4.56,5.45,8.82,8.19,13.17,4.03,6.4,8.14,12.65,12.62,18.72,3.45,4.67,6.91,9.34,10.36,14.01,2.35,3.17,4.81,6.29,7.05,9.54,17.31,24.68,16.44,50.49-6.2,72.36,24.26-11.53,33.74-39.16,22.01-63.77-14.2-29.75-46.64-46.77-50.61-82.09.13-4.63.97-9.24,2.5-13.82-.23,1.42-.4,2.87-.48,4.34-1.39,24.64,17.67,44.4,33.03,61.34,13.55,14.94,24.24,27.31,24.91,48.29,17.45-51.81-52.44-71.94-45.63-114.75Z"/><path d="M702.23-119.63c-1.57,10.37-6.02,19.35-12.79,27.15,0,0-22.06,25.38-22.05,25.38-6.5,7.48-9.73,15.82-11.51,25.29-2.77-13.68,1.92-26.17,10.68-36.04l19.7-22.23c4.06-4.58,7.39-9.66,9.01-15.48.36-1.3.64-2.64.82-4.02,1.04-7.94-1.69-15.38-7.56-19.72-.73-.54-1.51-1.04-2.34-1.48-7.47-3.97-16.75-3.34-22.93,2.92-4.15,4.19-6.27,9.88-5.15,15.28,1.1,5.27,4.67,10.42,10.22,12.07,6.04,1.8,11.69-.72,14.43-5.09,3.61-5.75,1.75-11.68-2.93-16.38,5.76,2.41,8.73,9.24,7.62,14.59-1.26,6.06-5.78,10.51-12.04,12.12-6.87,1.76-13.96-.86-18.37-5.9-4.62-5.32-6.73-12.63-4.62-20.12,3.49-12.29,15.93-19.99,28.83-18.88-7.1-9.99-14.57-20.05-16.32-31.38,3.8,8.34,7.87,15.82,13.79,23.03l7.54,9.17c4.49,1.04,8.59,2.88,12.2,5.38l-21.9-24.91c-10.49-11.93-16.85-26.57-16-42.58,6.58,35.44,40.73,49.65,57.51,78.31,8.22,14.05,9.43,31.58,1.89,46.18-2.36,4.56-5.45,8.82-8.19,13.17-4.03,6.4-8.14,12.65-12.62,18.72-3.45,4.67-6.91,9.34-10.36,14.01-2.35,3.17-4.81,6.29-7.05,9.54-17.31,24.68-16.44,50.49,6.2,72.36-24.26-11.53-33.74-39.16-22.01-63.77,14.2-29.75,46.64-46.77,50.61-82.09-.13-4.63-.97-9.24-2.5-13.82.23,1.42.4,2.87.48,4.34,1.39,24.64-17.67,44.4-33.03,61.34-13.55,14.94-24.24,27.31-24.91,48.29-17.45-51.81,52.44-71.94,45.63-114.75Z"/><path d="M601.77,98.6c1.57,10.37,6.02,19.35,12.79,27.15,0,0,22.06,25.38,22.05,25.38,6.5,7.48,9.73,15.82,11.51,25.29,2.77-13.68-1.92-26.17-10.68-36.04l-19.7-22.23c-4.06-4.58-7.39-9.66-9.01-15.48-.36-1.3-.64-2.64-.82-4.02-1.04-7.94,1.69-15.38,7.56-19.72.73-.54,1.51-1.04,2.34-1.48,7.47-3.97,16.75-3.34,22.93,2.92,4.15,4.19,6.27,9.88,5.15,15.28-1.1,5.27-4.67,10.42-10.22,12.07-6.04,1.8-11.69-.72-14.43-5.09-3.61-5.75-1.75-11.68,2.93-16.38-5.76,2.41-8.73,9.24-7.62,14.59,1.26,6.06,5.78,10.51,12.04,12.12,6.87,1.76,13.96-.86,18.37-5.9,4.62-5.32,6.73-12.63,4.62-20.12-3.49-12.29-15.93-19.99-28.83-18.88,7.1-9.99,14.57-20.05,16.32-31.38-3.8,8.34-7.87,15.82-13.79,23.03l-7.54,9.17c-4.49,1.04-8.59,2.88-12.2,5.38l21.9-24.91c10.49-11.93,16.85-26.57,16-42.58-6.58,35.44-40.73,49.65-57.51,78.31-8.22,14.05-9.43,31.58-1.89,46.18,2.36,4.56,5.45,8.82,8.19,13.17,4.03,6.4,8.14,12.65,12.62,18.72,3.45,4.67,6.91,9.34,10.36,14.01,2.35,3.17,4.81,6.29,7.05,9.54,17.31,24.68,16.44,50.49-6.2,72.36,24.26-11.53,33.74-39.16,22.01-63.77-14.2-29.75-46.64-46.77-50.61-82.09.13-4.63.97-9.24,2.5-13.82-.23,1.42-.4,2.87-.48,4.34-1.39,24.64,17.67,44.4,33.03,61.34,13.55,14.94,24.24,27.31,24.91,48.29,17.45-51.81-52.44-71.94-45.63-114.75Z"/><path d="M603.97,56.26c16.74-15.58,37.39-33.67,38.09-58.34.53-18.51-11.32-34.57-29.41-38.19-13-2.6-26.48,4.04-31.08,16.24-2.73,7.28-1.24,14.75,2.91,20.43,3.96,5.4,10.81,8.6,17.8,7.43,6.38-1.07,11.25-5.13,13.02-11.06,1.56-5.23-.83-12.29-6.36-15.18,4.27,5.08,5.62,11.15,1.54,16.57-3.11,4.13-8.94,6.16-14.82,3.85-5.39-2.11-8.51-7.53-9.16-12.88-.67-5.47,1.93-10.96,6.41-14.8,6.69-5.72,15.99-5.56,23.09-.97,7.11,4.58,10,13.16,8.08,21.96-1.62,7.43-6.01,13.44-11.44,18.6l-21.5,20.48c-9.56,9.1-15.29,21.15-13.68,35.01,2.57-9.28,6.49-17.32,13.6-24.23h-.01s24.12-23.43,24.12-23.43c7.41-7.2,12.6-15.77,15.03-25.97,3.18,43.23-68.16,57.4-55.14,110.49,2.44-20.85,14.13-32.28,28.89-46.02Z"/><path d="M702.23,99.54c-1.57,10.37-6.02,19.35-12.79,27.15,0,0-22.06,25.38-22.05,25.38-6.5,7.48-9.73,15.82-11.51,25.29-2.77-13.68,1.92-26.17,10.68-36.04l19.7-22.23c4.06-4.58,7.39-9.66,9.01-15.48.36-1.3.64-2.64.82-4.02,1.04-7.94-1.69-15.38-7.56-19.72-.73-.54-1.51-1.04-2.34-1.48-7.47-3.97-16.75-3.34-22.93,2.92-4.15,4.19-6.27,9.88-5.15,15.28,1.1,5.27,4.67,10.42,10.22,12.07,6.04,1.8,11.69-.72,14.43-5.09,3.61-5.75,1.75-11.68-2.93-16.38,5.76,2.41,8.73,9.24,7.62,14.59-1.26,6.06-5.78,10.51-12.04,12.12-6.87,1.76-13.96-.86-18.37-5.9-4.62-5.32-6.73-12.63-4.62-20.12,3.49-12.29,15.93-19.99,28.83-18.88-7.1-9.99-14.57-20.05-16.32-31.38,3.8,8.34,7.87,15.82,13.79,23.03l7.54,9.17c4.49,1.04,8.59,2.88,12.2,5.38l-21.9-24.91c-10.49-11.93-16.85-26.57-16-42.58,6.58,35.44,40.73,49.65,57.51,78.31,8.22,14.05,9.43,31.58,1.89,46.18-2.36,4.56-5.45,8.82-8.19,13.17-4.03,6.4-8.14,12.65-12.62,18.72-3.45,4.67-6.91,9.34-10.36,14.01-2.35,3.17-4.81,6.29-7.05,9.54-17.31,24.68-16.44,50.49,6.2,72.36-24.26-11.53-33.74-39.16-22.01-63.77,14.2-29.75,46.64-46.77,50.61-82.09-.13-4.63-.97-9.24-2.5-13.82.23,1.42.4,2.87.48,4.34,1.39,24.64-17.67,44.4-33.03,61.34-13.55,14.94-24.24,27.31-24.91,48.29-17.45-51.81,52.44-71.94,45.63-114.75Z"/><path d="M438.77-11.32c1.57,10.37,6.02,19.35,12.79,27.15,0,0,22.06,25.38,22.05,25.38,6.5,7.48,9.73,15.82,11.51,25.29,2.77-13.68-1.92-26.17-10.68-36.04l-19.7-22.23c-4.06-4.58-7.39-9.66-9.01-15.48-.36-1.3-.64-2.64-.82-4.02-1.04-7.94,1.69-15.38,7.56-19.72.73-.54,1.51-1.04,2.34-1.48,7.47-3.97,16.75-3.34,22.93,2.92,4.15,4.19,6.27,9.88,5.15,15.28-1.1,5.27-4.67,10.42-10.22,12.07-6.04,1.8-11.69-.72-14.43-5.09-3.61-5.75-1.75-11.68,2.93-16.38-5.76,2.41-8.73,9.24-7.62,14.59,1.26,6.06,5.78,10.51,12.04,12.12,6.87,1.76,13.96-.86,18.37-5.9,4.62-5.32,6.73-12.63,4.62-20.12-3.49-12.29-15.93-19.99-28.83-18.88,7.1-9.99,14.57-20.05,16.32-31.38-3.8,8.34-7.87,15.82-13.79,23.03l-7.54,9.17c-4.49,1.04-8.59,2.88-12.2,5.38l21.9-24.91c10.49-11.93,16.85-26.57,16-42.58-6.58,35.44-40.73,49.65-57.51,78.31-8.22,14.05-9.43,31.58-1.89,46.18,2.36,4.56,5.45,8.82,8.19,13.17,4.03,6.4,8.14,12.65,12.62,18.72,3.45,4.67,6.91,9.34,10.36,14.01,2.35,3.17,4.81,6.29,7.05,9.54,17.31,24.68,16.44,50.49-6.2,72.36,24.26-11.53,33.74-39.16,22.01-63.77-14.2-29.75-46.64-46.77-50.61-82.09.13-4.63.97-9.24,2.5-13.82-.23,1.42-.4,2.87-.48,4.34-1.39,24.64,17.67,44.4,33.03,61.34,13.55,14.94,24.24,27.31,24.91,48.29,17.45-51.81-52.44-71.94-45.63-114.75Z"/><path d="M539.23-10.38c-1.57,10.37-6.02,19.35-12.79,27.15,0,0-22.06,25.38-22.05,25.38-6.5,7.48-9.73,15.82-11.51,25.29-2.77-13.68,1.92-26.17,10.68-36.04l19.7-22.23c4.06-4.58,7.39-9.66,9.01-15.48.36-1.3.64-2.64.82-4.02,1.04-7.94-1.69-15.38-7.56-19.72-.73-.54-1.51-1.04-2.34-1.48-7.47-3.97-16.75-3.34-22.93,2.92-4.15,4.19-6.27,9.88-5.15,15.28,1.1,5.27,4.67,10.42,10.22,12.07,6.04,1.8,11.69-.72,14.43-5.09,3.61-5.75,1.75-11.68-2.93-16.38,5.76,2.41,8.73,9.24,7.62,14.59-1.26,6.06-5.78,10.51-12.04,12.12-6.87,1.76-13.96-.86-18.37-5.9-4.62-5.32-6.73-12.63-4.62-20.12,3.49-12.29,15.93-19.99,28.83-18.88-7.1-9.99-14.57-20.05-16.32-31.38,3.8,8.34,7.87,15.82,13.79,23.03l7.54,9.17c4.49,1.04,8.59,2.88,12.2,5.38l-21.9-24.91c-10.49-11.93-16.85-26.57-16-42.58,6.58,35.44,40.73,49.65,57.51,78.31,8.22,14.05,9.43,31.58,1.89,46.18-2.36,4.56-5.45,8.82-8.19,13.17-4.03,6.4-8.14,12.65-12.62,18.72-3.45,4.67-6.91,9.34-10.36,14.01-2.35,3.17-4.81,6.29-7.05,9.54-17.31,24.68-16.44,50.49,6.2,72.36-24.26-11.53-33.74-39.16-22.01-63.77,14.2-29.75,46.64-46.77,50.61-82.09-.13-4.63-.97-9.24-2.5-13.82.23,1.42.4,2.87.48,4.34,1.39,24.64-17.67,44.4-33.03,61.34-13.55,14.94-24.24,27.31-24.91,48.29-17.45-51.81,52.44-71.94,45.63-114.75Z"/><path d="M438.77,207.85c1.57,10.37,6.02,19.35,12.79,27.15,0,0,22.06,25.38,22.05,25.38,6.5,7.48,9.73,15.82,11.51,25.29,2.77-13.68-1.92-26.17-10.68-36.04l-19.7-22.23c-4.06-4.58-7.39-9.66-9.01-15.48-.36-1.3-.64-2.64-.82-4.02-1.04-7.94,1.69-15.38,7.56-19.72.73-.54,1.51-1.04,2.34-1.48,7.47-3.97,16.75-3.34,22.93,2.92,4.15,4.19,6.27,9.88,5.15,15.28-1.1,5.27-4.67,10.42-10.22,12.07-6.04,1.8-11.69-.72-14.43-5.09-3.61-5.75-1.75-11.68,2.93-16.38-5.76,2.41-8.73,9.24-7.62,14.59,1.26,6.06,5.78,10.51,12.04,12.12,6.87,1.76,13.96-.86,18.37-5.9,4.62-5.32,6.73-12.63,4.62-20.12-3.49-12.29-15.93-19.99-28.83-18.88,7.1-9.99,14.57-20.05,16.32-31.38-3.8,8.34-7.87,15.82-13.79,23.03l-7.54,9.17c-4.49,1.04-8.59,2.88-12.2,5.38l21.9-24.91c10.49-11.93,16.85-26.57,16-42.58-6.58,35.44-40.73,49.65-57.51,78.31-8.22,14.05-9.43,31.58-1.89,46.18,2.36,4.56,5.45,8.82,8.19,13.17,4.03,6.4,8.14,12.65,12.62,18.72,3.45,4.67,6.91,9.34,10.36,14.01,2.35,3.17,4.81,6.29,7.05,9.54,17.31,24.68,16.44,50.49-6.2,72.36,24.26-11.53,33.74-39.16,22.01-63.77-14.2-29.75-46.64-46.77-50.61-82.09.13-4.63.97-9.24,2.5-13.82-.23,1.42-.4,2.87-.48,4.34-1.39,24.64,17.67,44.4,33.03,61.34,13.55,14.94,24.24,27.31,24.91,48.29,17.45-51.81-52.44-71.94-45.63-114.75Z"/><path d="M440.97,165.51c16.74-15.58,37.39-33.67,38.09-58.34.53-18.51-11.32-34.57-29.41-38.19-13-2.6-26.48,4.04-31.08,16.24-2.73,7.28-1.24,14.75,2.91,20.43,3.96,5.4,10.81,8.6,17.8,7.43,6.38-1.07,11.25-5.13,13.02-11.06,1.56-5.23-.83-12.29-6.36-15.18,4.27,5.08,5.62,11.15,1.54,16.57-3.11,4.13-8.94,6.16-14.82,3.85-5.39-2.11-8.51-7.53-9.16-12.88-.67-5.47,1.93-10.96,6.41-14.8,6.69-5.72,15.99-5.56,23.09-.97,7.11,4.58,10,13.16,8.08,21.96-1.62,7.43-6.01,13.44-11.44,18.6l-21.5,20.48c-9.56,9.1-15.29,21.15-13.68,35.01,2.57-9.28,6.49-17.32,13.6-24.23h-.01s24.12-23.43,24.12-23.43c7.41-7.2,12.6-15.77,15.03-25.97,3.18,43.23-68.16,57.4-55.14,110.49,2.44-20.85,14.13-32.28,28.89-46.02Z"/><path d="M539.23,208.79c-1.57,10.37-6.02,19.35-12.79,27.15,0,0-22.06,25.38-22.05,25.38-6.5,7.48-9.73,15.82-11.51,25.29-2.77-13.68,1.92-26.17,10.68-36.04l19.7-22.23c4.06-4.58,7.39-9.66,9.01-15.48.36-1.3.64-2.64.82-4.02,1.04-7.94-1.69-15.38-7.56-19.72-.73-.54-1.51-1.04-2.34-1.48-7.47-3.97-16.75-3.34-22.93,2.92-4.15,4.19-6.27,9.88-5.15,15.28,1.1,5.27,4.67,10.42,10.22,12.07,6.04,1.8,11.69-.72,14.43-5.09,3.61-5.75,1.75-11.68-2.93-16.38,5.76,2.41,8.73,9.24,7.62,14.59-1.26,6.06-5.78,10.51-12.04,12.12-6.87,1.76-13.96-.86-18.37-5.9-4.62-5.32-6.73-12.63-4.62-20.12,3.49-12.29,15.93-19.99,28.83-18.88-7.1-9.99-14.57-20.05-16.32-31.38,3.8,8.34,7.87,15.82,13.79,23.03l7.54,9.17c4.49,1.04,8.59,2.88,12.2,5.38l-21.9-24.91c-10.49-11.93-16.85-26.57-16-42.58,6.58,35.44,40.73,49.65,57.51,78.31,8.22,14.05,9.43,31.58,1.89,46.18-2.36,4.56-5.45,8.82-8.19,13.17-4.03,6.4-8.14,12.65-12.62,18.72-3.45,4.67-6.91,9.34-10.36,14.01-2.35,3.17-4.81,6.29-7.05,9.54-17.31,24.68-16.44,50.49,6.2,72.36-24.26-11.53-33.74-39.16-22.01-63.77,14.2-29.75,46.64-46.77,50.61-82.09-.13-4.63-.97-9.24-2.5-13.82.23,1.42.4,2.87.48,4.34,1.39,24.64-17.67,44.4-33.03,61.34-13.55,14.94-24.24,27.31-24.91,48.29-17.45-51.81,52.44-71.94,45.63-114.75Z"/><path d="M537.03,166.45c-16.74-15.58-37.39-33.67-38.09-58.34-.53-18.51,11.32-34.57,29.41-38.19,13-2.6,26.48,4.04,31.08,16.24,2.73,7.28,1.24,14.75-2.91,20.43-3.96,5.4-10.81,8.6-17.8,7.43-6.38-1.07-11.25-5.13-13.02-11.06-1.56-5.23.83-12.29,6.36-15.18-4.27,5.08-5.62,11.15-1.54,16.57,3.11,4.13,8.94,6.16,14.82,3.85,5.39-2.11,8.51-7.53,9.16-12.88.67-5.47-1.93-10.96-6.41-14.8-6.69-5.72-15.99-5.56-23.09-.97-7.11,4.58-10,13.16-8.08,21.96,1.62,7.43,6.01,13.44,11.44,18.6l21.5,20.48c9.56,9.1,15.29,21.15,13.68,35.01-2.57-9.28-6.49-17.32-13.6-24.23h.01s-24.12-23.43-24.12-23.43c-7.41-7.2-12.6-15.77-15.03-25.97-3.18,43.23,68.16,57.4,55.14,110.49-2.44-20.85-14.13-32.28-28.89-46.02Z"/><path d="M275.77,97.93c1.57,10.37,6.02,19.35,12.79,27.15,0,0,22.06,25.38,22.05,25.38,6.5,7.48,9.73,15.82,11.51,25.29,2.77-13.68-1.92-26.17-10.68-36.04l-19.7-22.23c-4.06-4.58-7.39-9.66-9.01-15.48-.36-1.3-.64-2.64-.82-4.02-1.04-7.94,1.69-15.38,7.56-19.72.73-.54,1.51-1.04,2.34-1.48,7.47-3.97,16.75-3.34,22.93,2.92,4.15,4.19,6.27,9.88,5.15,15.28-1.1,5.27-4.67,10.42-10.22,12.07-6.04,1.8-11.69-.72-14.43-5.09-3.61-5.75-1.75-11.68,2.93-16.38-5.76,2.41-8.73,9.24-7.62,14.59,1.26,6.06,5.78,10.51,12.04,12.12,6.87,1.76,13.96-.86,18.37-5.9,4.62-5.32,6.73-12.63,4.62-20.12-3.49-12.29-15.93-19.99-28.83-18.88,7.1-9.99,14.57-20.05,16.32-31.38-3.8,8.34-7.87,15.82-13.79,23.03l-7.54,9.17c-4.49,1.04-8.59,2.88-12.2,5.38l21.9-24.91c10.49-11.93,16.85-26.57,16-42.58-6.58,35.44-40.73,49.65-57.51,78.31-8.22,14.05-9.43,31.58-1.89,46.18,2.36,4.56,5.45,8.82,8.19,13.17,4.03,6.4,8.14,12.65,12.62,18.72,3.45,4.67,6.91,9.34,10.36,14.01,2.35,3.17,4.81,6.29,7.05,9.54,17.31,24.68,16.44,50.49-6.2,72.36,24.26-11.53,33.74-39.16,22.01-63.77-14.2-29.75-46.64-46.77-50.61-82.09.13-4.63.97-9.24,2.5-13.82-.23,1.42-.4,2.87-.48,4.34-1.39,24.64,17.67,44.4,33.03,61.34,13.55,14.94,24.24,27.31,24.91,48.29,17.45-51.81-52.44-71.94-45.63-114.75Z"/><path d="M277.97,55.58c16.74-15.58,37.39-33.67,38.09-58.34.53-18.51-11.32-34.57-29.41-38.19-13-2.6-26.48,4.04-31.08,16.24-2.73,7.28-1.24,14.75,2.91,20.43,3.96,5.4,10.81,8.6,17.8,7.43,6.38-1.07,11.25-5.13,13.02-11.06,1.56-5.23-.83-12.29-6.36-15.18,4.27,5.08,5.62,11.15,1.54,16.57-3.11,4.13-8.94,6.16-14.82,3.85-5.39-2.11-8.51-7.53-9.16-12.88-.67-5.47,1.93-10.96,6.41-14.8,6.69-5.72,15.99-5.56,23.09-.97,7.11,4.58,10,13.16,8.08,21.96-1.62,7.43-6.01,13.44-11.44,18.6l-21.5,20.48c-9.56,9.1-15.29,21.15-13.68,35.01,2.57-9.28,6.49-17.32,13.6-24.23h-.01s24.12-23.43,24.12-23.43c7.41-7.2,12.6-15.77,15.03-25.97,3.18,43.23-68.16,57.4-55.14,110.49,2.44-20.85,14.13-32.28,28.89-46.02Z"/><path d="M376.23,98.87c-1.57,10.37-6.02,19.35-12.79,27.15,0,0-22.06,25.38-22.05,25.38-6.5,7.48-9.73,15.82-11.51,25.29-2.77-13.68,1.92-26.17,10.68-36.04l19.7-22.23c4.06-4.58,7.39-9.66,9.01-15.48.36-1.3.64-2.64.82-4.02,1.04-7.94-1.69-15.38-7.56-19.72-.73-.54-1.51-1.04-2.34-1.48-7.47-3.97-16.75-3.34-22.93,2.92-4.15,4.19-6.27,9.88-5.15,15.28,1.1,5.27,4.67,10.42,10.22,12.07,6.04,1.8,11.69-.72,14.43-5.09,3.61-5.75,1.75-11.68-2.93-16.38,5.76,2.41,8.73,9.24,7.62,14.59-1.26,6.06-5.78,10.51-12.04,12.12-6.87,1.76-13.96-.86-18.37-5.9-4.62-5.32-6.73-12.63-4.62-20.12,3.49-12.29,15.93-19.99,28.83-18.88-7.1-9.99-14.57-20.05-16.32-31.38,3.8,8.34,7.87,15.82,13.79,23.03l7.54,9.17c4.49,1.04,8.59,2.88,12.2,5.38l-21.9-24.91c-10.49-11.93-16.85-26.57-16-42.58,6.58,35.44,40.73,49.65,57.51,78.31,8.22,14.05,9.43,31.58,1.89,46.18-2.36,4.56-5.45,8.82-8.19,13.17-4.03,6.4-8.14,12.65-12.62,18.72-3.45,4.67-6.91,9.34-10.36,14.01-2.35,3.17-4.81,6.29-7.05,9.54-17.31,24.68-16.44,50.49,6.2,72.36-24.26-11.53-33.74-39.16-22.01-63.77,14.2-29.75,46.64-46.77,50.61-82.09-.13-4.63-.97-9.24-2.5-13.82.23,1.42.4,2.87.48,4.34,1.39,24.64-17.67,44.4-33.03,61.34-13.55,14.94-24.24,27.31-24.91,48.29-17.45-51.81,52.44-71.94,45.63-114.75Z"/><path d="M374.03,56.52c-16.74-15.58-37.39-33.67-38.09-58.34-.53-18.51,11.32-34.57,29.41-38.19,13-2.6,26.48,4.04,31.08,16.24,2.73,7.28,1.24,14.75-2.91,20.43-3.96,5.4-10.81,8.6-17.8,7.43-6.38-1.07-11.25-5.13-13.02-11.06-1.56-5.23.83-12.29,6.36-15.18-4.27,5.08-5.62,11.15-1.54,16.57,3.11,4.13,8.94,6.16,14.82,3.85,5.39-2.11,8.51-7.53,9.16-12.88.67-5.47-1.93-10.96-6.41-14.8-6.69-5.72-15.99-5.56-23.09-.97-7.11,4.58-10,13.16-8.08,21.96,1.62,7.43,6.01,13.44,11.44,18.6l21.5,20.48c9.56,9.1,15.29,21.15,13.68,35.01-2.57-9.28-6.49-17.32-13.6-24.23h.01s-24.12-23.43-24.12-23.43c-7.41-7.2-12.6-15.77-15.03-25.97-3.18,43.23,68.16,57.4,55.14,110.49-2.44-20.85-14.13-32.28-28.89-46.02Z"/><path d="M275.77,317.1c1.57,10.37,6.02,19.35,12.79,27.15,0,0,22.06,25.38,22.05,25.38,6.5,7.48,9.73,15.82,11.51,25.29,2.77-13.68-1.92-26.17-10.68-36.04l-19.7-22.23c-4.06-4.58-7.39-9.66-9.01-15.48-.36-1.3-.64-2.64-.82-4.02-1.04-7.94,1.69-15.38,7.56-19.72.73-.54,1.51-1.04,2.34-1.48,7.47-3.97,16.75-3.34,22.93,2.92,4.15,4.19,6.27,9.88,5.15,15.28-1.1,5.27-4.67,10.42-10.22,12.07-6.04,1.8-11.69-.72-14.43-5.09-3.61-5.75-1.75-11.68,2.93-16.38-5.76,2.41-8.73,9.24-7.62,14.59,1.26,6.06,5.78,10.51,12.04,12.12,6.87,1.76,13.96-.86,18.37-5.9,4.62-5.32,6.73-12.63,4.62-20.12-3.49-12.29-15.93-19.99-28.83-18.88,7.1-9.99,14.57-20.05,16.32-31.38-3.8,8.34-7.87,15.82-13.79,23.03l-7.54,9.17c-4.49,1.04-8.59,2.88-12.2,5.38l21.9-24.91c10.49-11.93,16.85-26.57,16-42.58-6.58,35.44-40.73,49.65-57.51,78.31-8.22,14.05-9.43,31.58-1.89,46.18,2.36,4.56,5.45,8.82,8.19,13.17,4.03,6.4,8.14,12.65,12.62,18.72,3.45,4.67,6.91,9.34,10.36,14.01,2.35,3.17,4.81,6.29,7.05,9.54,17.31,24.68,16.44,50.49-6.2,72.36,24.26-11.53,33.74-39.16,22.01-63.77-14.2-29.75-46.64-46.77-50.61-82.09.13-4.63.97-9.24,2.5-13.82-.23,1.42-.4,2.87-.48,4.34-1.39,24.64,17.67,44.4,33.03,61.34,13.55,14.94,24.24,27.31,24.91,48.29,17.45-51.81-52.44-71.94-45.63-114.75Z"/><path d="M277.97,274.76c16.74-15.58,37.39-33.67,38.09-58.34.53-18.51-11.32-34.57-29.41-38.19-13-2.6-26.48,4.04-31.08,16.24-2.73,7.28-1.24,14.75,2.91,20.43,3.96,5.4,10.81,8.6,17.8,7.43,6.38-1.07,11.25-5.13,13.02-11.06,1.56-5.23-.83-12.29-6.36-15.18,4.27,5.08,5.62,11.15,1.54,16.57-3.11,4.13-8.94,6.16-14.82,3.85-5.39-2.11-8.51-7.53-9.16-12.88-.67-5.47,1.93-10.96,6.41-14.8,6.69-5.72,15.99-5.56,23.09-.97,7.11,4.58,10,13.16,8.08,21.96-1.62,7.43-6.01,13.44-11.44,18.6l-21.5,20.48c-9.56,9.1-15.29,21.15-13.68,35.01,2.57-9.28,6.49-17.32,13.6-24.23h-.01s24.12-23.43,24.12-23.43c7.41-7.2,12.6-15.77,15.03-25.97,3.18,43.23-68.16,57.4-55.14,110.49,2.44-20.85,14.13-32.28,28.89-46.02Z"/><path d="M376.23,318.04c-1.57,10.37-6.02,19.35-12.79,27.15,0,0-22.06,25.38-22.05,25.38-6.5,7.48-9.73,15.82-11.51,25.29-2.77-13.68,1.92-26.17,10.68-36.04l19.7-22.23c4.06-4.58,7.39-9.66,9.01-15.48.36-1.3.64-2.64.82-4.02,1.04-7.94-1.69-15.38-7.56-19.72-.73-.54-1.51-1.04-2.34-1.48-7.47-3.97-16.75-3.34-22.93,2.92-4.15,4.19-6.27,9.88-5.15,15.28,1.1,5.27,4.67,10.42,10.22,12.07,6.04,1.8,11.69-.72,14.43-5.09,3.61-5.75,1.75-11.68-2.93-16.38,5.76,2.41,8.73,9.24,7.62,14.59-1.26,6.06-5.78,10.51-12.04,12.12-6.87,1.76-13.96-.86-18.37-5.9-4.62-5.32-6.73-12.63-4.62-20.12,3.49-12.29,15.93-19.99,28.83-18.88-7.1-9.99-14.57-20.05-16.32-31.38,3.8,8.34,7.87,15.82,13.79,23.03l7.54,9.17c4.49,1.04,8.59,2.88,12.2,5.38l-21.9-24.91c-10.49-11.93-16.85-26.57-16-42.58,6.58,35.44,40.73,49.65,57.51,78.31,8.22,14.05,9.43,31.58,1.89,46.18-2.36,4.56-5.45,8.82-8.19,13.17-4.03,6.4-8.14,12.65-12.62,18.72-3.45,4.67-6.91,9.34-10.36,14.01-2.35,3.17-4.81,6.29-7.05,9.54-17.31,24.68-16.44,50.49,6.2,72.36-24.26-11.53-33.74-39.16-22.01-63.77,14.2-29.75,46.64-46.77,50.61-82.09-.13-4.63-.97-9.24-2.5-13.82.23,1.42.4,2.87.48,4.34,1.39,24.64-17.67,44.4-33.03,61.34-13.55,14.94-24.24,27.31-24.91,48.29-17.45-51.81,52.44-71.94,45.63-114.75Z"/><path d="M374.03,275.7c-16.74-15.58-37.39-33.67-38.09-58.34-.53-18.51,11.32-34.57,29.41-38.19,13-2.6,26.48,4.04,31.08,16.24,2.73,7.28,1.24,14.75-2.91,20.43-3.96,5.4-10.81,8.6-17.8,7.43-6.38-1.07-11.25-5.13-13.02-11.06-1.56-5.23.83-12.29,6.36-15.18-4.27,5.08-5.62,11.15-1.54,16.57,3.11,4.13,8.94,6.16,14.82,3.85,5.39-2.11,8.51-7.53,9.16-12.88.67-5.47-1.93-10.96-6.41-14.8-6.69-5.72-15.99-5.56-23.09-.97-7.11,4.58-10,13.16-8.08,21.96,1.62,7.43,6.01,13.44,11.44,18.6l21.5,20.48c9.56,9.1,15.29,21.15,13.68,35.01-2.57-9.28-6.49-17.32-13.6-24.23h.01s-24.12-23.43-24.12-23.43c-7.41-7.2-12.6-15.77-15.03-25.97-3.18,43.23,68.16,57.4,55.14,110.49-2.44-20.85-14.13-32.28-28.89-46.02Z"/><path d="M112.77,207.18c1.57,10.37,6.02,19.35,12.79,27.15,0,0,22.06,25.38,22.05,25.38,6.5,7.48,9.73,15.82,11.51,25.29,2.77-13.68-1.92-26.17-10.68-36.04l-19.7-22.23c-4.06-4.58-7.39-9.66-9.01-15.48-.36-1.3-.64-2.64-.82-4.02-1.04-7.94,1.69-15.38,7.56-19.72.73-.54,1.51-1.04,2.34-1.48,7.47-3.97,16.75-3.34,22.93,2.92,4.15,4.19,6.27,9.88,5.15,15.28-1.1,5.27-4.67,10.42-10.22,12.07-6.04,1.8-11.69-.72-14.43-5.09-3.61-5.75-1.75-11.68,2.93-16.38-5.76,2.41-8.73,9.24-7.62,14.59,1.26,6.06,5.78,10.51,12.04,12.12,6.87,1.76,13.96-.86,18.37-5.9,4.62-5.32,6.73-12.63,4.62-20.12-3.49-12.29-15.93-19.99-28.83-18.88,7.1-9.99,14.57-20.05,16.32-31.38-3.8,8.34-7.87,15.82-13.79,23.03l-7.54,9.17c-4.49,1.04-8.59,2.88-12.2,5.38l21.9-24.91c10.49-11.93,16.85-26.57,16-42.58-6.58,35.44-40.73,49.65-57.51,78.31-8.22,14.05-9.43,31.58-1.89,46.18,2.36,4.56,5.45,8.82,8.19,13.17,4.03,6.4,8.14,12.65,12.62,18.72,3.45,4.67,6.91,9.34,10.36,14.01,2.35,3.17,4.81,6.29,7.05,9.54,17.31,24.68,16.44,50.49-6.2,72.36,24.26-11.53,33.74-39.16,22.01-63.77-14.2-29.75-46.64-46.77-50.61-82.09.13-4.63.97-9.24,2.5-13.82-.23,1.42-.4,2.87-.48,4.34-1.39,24.64,17.67,44.4,33.03,61.34,13.55,14.94,24.24,27.31,24.91,48.29,17.45-51.81-52.44-71.94-45.63-114.75Z"/><path d="M114.97,164.83c16.74-15.58,37.39-33.67,38.09-58.34.53-18.51-11.32-34.57-29.41-38.19-13-2.6-26.48,4.04-31.08,16.24-2.73,7.28-1.24,14.75,2.91,20.43,3.96,5.4,10.81,8.6,17.8,7.43,6.38-1.07,11.25-5.13,13.02-11.06,1.56-5.23-.83-12.29-6.36-15.18,4.27,5.08,5.62,11.15,1.54,16.57-3.11,4.13-8.94,6.16-14.82,3.85-5.39-2.11-8.51-7.53-9.16-12.88-.67-5.47,1.93-10.96,6.41-14.8,6.69-5.72,15.99-5.56,23.09-.97,7.11,4.58,10,13.16,8.08,21.96-1.62,7.43-6.01,13.44-11.44,18.6l-21.5,20.48c-9.56,9.1-15.29,21.15-13.68,35.01,2.57-9.28,6.49-17.32,13.6-24.23h-.01s24.12-23.43,24.12-23.43c7.41-7.2,12.6-15.77,15.03-25.97,3.18,43.23-68.16,57.4-55.14,110.49,2.44-20.85,14.13-32.28,28.89-46.02Z"/><path d="M213.23,208.12c-1.57,10.37-6.02,19.35-12.79,27.15,0,0-22.06,25.38-22.05,25.38-6.5,7.48-9.73,15.82-11.51,25.29-2.77-13.68,1.92-26.17,10.68-36.04l19.7-22.23c4.06-4.58,7.39-9.66,9.01-15.48.36-1.3.64-2.64.82-4.02,1.04-7.94-1.69-15.38-7.56-19.72-.73-.54-1.51-1.04-2.34-1.48-7.47-3.97-16.75-3.34-22.93,2.92-4.15,4.19-6.27,9.88-5.15,15.28,1.1,5.27,4.67,10.42,10.22,12.07,6.04,1.8,11.69-.72,14.43-5.09,3.61-5.75,1.75-11.68-2.93-16.38,5.76,2.41,8.73,9.24,7.62,14.59-1.26,6.06-5.78,10.51-12.04,12.12-6.87,1.76-13.96-.86-18.37-5.9-4.62-5.32-6.73-12.63-4.62-20.12,3.49-12.29,15.93-19.99,28.83-18.88-7.1-9.99-14.57-20.05-16.32-31.38,3.8,8.34,7.87,15.82,13.79,23.03l7.54,9.17c4.49,1.04,8.59,2.88,12.2,5.38l-21.9-24.91c-10.49-11.93-16.85-26.57-16-42.58,6.58,35.44,40.73,49.65,57.51,78.31,8.22,14.05,9.43,31.58,1.89,46.18-2.36,4.56-5.45,8.82-8.19,13.17-4.03,6.4-8.14,12.65-12.62,18.72-3.45,4.67-6.91,9.34-10.36,14.01-2.35,3.17-4.81,6.29-7.05,9.54-17.31,24.68-16.44,50.49,6.2,72.36-24.26-11.53-33.74-39.16-22.01-63.77,14.2-29.75,46.64-46.77,50.61-82.09-.13-4.63-.97-9.24-2.5-13.82.23,1.42.4,2.87.48,4.34,1.39,24.64-17.67,44.4-33.03,61.34-13.55,14.94-24.24,27.31-24.91,48.29-17.45-51.81,52.44-71.94,45.63-114.75Z"/><path d="M211.03,165.77c-16.74-15.58-37.39-33.67-38.09-58.34-.53-18.51,11.32-34.57,29.41-38.19,13-2.6,26.48,4.04,31.08,16.24,2.73,7.28,1.24,14.75-2.91,20.43-3.96,5.4-10.81,8.6-17.8,7.43-6.38-1.07-11.25-5.13-13.02-11.06-1.56-5.23.83-12.29,6.36-15.18-4.27,5.08-5.62,11.15-1.54,16.57,3.11,4.13,8.94,6.16,14.82,3.85,5.39-2.11,8.51-7.53,9.16-12.88.67-5.47-1.93-10.96-6.41-14.8-6.69-5.72-15.99-5.56-23.09-.97-7.11,4.58-10,13.16-8.08,21.96,1.62,7.43,6.01,13.44,11.44,18.6l21.5,20.48c9.56,9.1,15.29,21.15,13.68,35.01-2.57-9.28-6.49-17.32-13.6-24.23h.01s-24.12-23.43-24.12-23.43c-7.41-7.2-12.6-15.77-15.03-25.97-3.18,43.23,68.16,57.4,55.14,110.49-2.44-20.85-14.13-32.28-28.89-46.02Z"/><path d="M112.77,426.35c1.57,10.37,6.02,19.35,12.79,27.15,0,0,22.06,25.38,22.05,25.38,6.5,7.48,9.73,15.82,11.51,25.29,2.77-13.68-1.92-26.17-10.68-36.04l-19.7-22.23c-4.06-4.58-7.39-9.66-9.01-15.48-.36-1.3-.64-2.64-.82-4.02-1.04-7.94,1.69-15.38,7.56-19.72.73-.54,1.51-1.04,2.34-1.48,7.47-3.97,16.75-3.34,22.93,2.92,4.15,4.19,6.27,9.88,5.15,15.28-1.1,5.27-4.67,10.42-10.22,12.07-6.04,1.8-11.69-.72-14.43-5.09-3.61-5.75-1.75-11.68,2.93-16.38-5.76,2.41-8.73,9.24-7.62,14.59,1.26,6.06,5.78,10.51,12.04,12.12,6.87,1.76,13.96-.86,18.37-5.9,4.62-5.32,6.73-12.63,4.62-20.12-3.49-12.29-15.93-19.99-28.83-18.88,7.1-9.99,14.57-20.05,16.32-31.38-3.8,8.34-7.87,15.82-13.79,23.03l-7.54,9.17c-4.49,1.04-8.59,2.88-12.2,5.38l21.9-24.91c10.49-11.93,16.85-26.57,16-42.58-6.58,35.44-40.73,49.65-57.51,78.31-8.22,14.05-9.43,31.58-1.89,46.18,2.36,4.56,5.45,8.82,8.19,13.17,4.03,6.4,8.14,12.65,12.62,18.72,3.45,4.67,6.91,9.34,10.36,14.01,2.35,3.17,4.81,6.29,7.05,9.54,17.31,24.68,16.44,50.49-6.2,72.36,24.26-11.53,33.74-39.16,22.01-63.77-14.2-29.75-46.64-46.77-50.61-82.09.13-4.63.97-9.24,2.5-13.82-.23,1.42-.4,2.87-.48,4.34-1.39,24.64,17.67,44.4,33.03,61.34,13.55,14.94,24.24,27.31,24.91,48.29,17.45-51.81-52.44-71.94-45.63-114.75Z"/><path d="M114.97,384.01c16.74-15.58,37.39-33.67,38.09-58.34.53-18.51-11.32-34.57-29.41-38.19-13-2.6-26.48,4.04-31.08,16.24-2.73,7.28-1.24,14.75,2.91,20.43,3.96,5.4,10.81,8.6,17.8,7.43,6.38-1.07,11.25-5.13,13.02-11.06,1.56-5.23-.83-12.29-6.36-15.18,4.27,5.08,5.62,11.15,1.54,16.57-3.11,4.13-8.94,6.16-14.82,3.85-5.39-2.11-8.51-7.53-9.16-12.88-.67-5.47,1.93-10.96,6.41-14.8,6.69-5.72,15.99-5.56,23.09-.97,7.11,4.58,10,13.16,8.08,21.96-1.62,7.43-6.01,13.44-11.44,18.6l-21.5,20.48c-9.56,9.1-15.29,21.15-13.68,35.01,2.57-9.28,6.49-17.32,13.6-24.23h-.01s24.12-23.43,24.12-23.43c7.41-7.2,12.6-15.77,15.03-25.97,3.18,43.23-68.16,57.4-55.14,110.49,2.44-20.85,14.13-32.28,28.89-46.02Z"/><path d="M213.23,427.29c-1.57,10.37-6.02,19.35-12.79,27.15,0,0-22.06,25.38-22.05,25.38-6.5,7.48-9.73,15.82-11.51,25.29-2.77-13.68,1.92-26.17,10.68-36.04l19.7-22.23c4.06-4.58,7.39-9.66,9.01-15.48.36-1.3.64-2.64.82-4.02,1.04-7.94-1.69-15.38-7.56-19.72-.73-.54-1.51-1.04-2.34-1.48-7.47-3.97-16.75-3.34-22.93,2.92-4.15,4.19-6.27,9.88-5.15,15.28,1.1,5.27,4.67,10.42,10.22,12.07,6.04,1.8,11.69-.72,14.43-5.09,3.61-5.75,1.75-11.68-2.93-16.38,5.76,2.41,8.73,9.24,7.62,14.59-1.26,6.06-5.78,10.51-12.04,12.12-6.87,1.76-13.96-.86-18.37-5.9-4.62-5.32-6.73-12.63-4.62-20.12,3.49-12.29,15.93-19.99,28.83-18.88-7.1-9.99-14.57-20.05-16.32-31.38,3.8,8.34,7.87,15.82,13.79,23.03l7.54,9.17c4.49,1.04,8.59,2.88,12.2,5.38l-21.9-24.91c-10.49-11.93-16.85-26.57-16-42.58,6.58,35.44,40.73,49.65,57.51,78.31,8.22,14.05,9.43,31.58,1.89,46.18-2.36,4.56-5.45,8.82-8.19,13.17-4.03,6.4-8.14,12.65-12.62,18.72-3.45,4.67-6.91,9.34-10.36,14.01-2.35,3.17-4.81,6.29-7.05,9.54-17.31,24.68-16.44,50.49,6.2,72.36-24.26-11.53-33.74-39.16-22.01-63.77,14.2-29.75,46.64-46.77,50.61-82.09-.13-4.63-.97-9.24-2.5-13.82.23,1.42.4,2.87.48,4.34,1.39,24.64-17.67,44.4-33.03,61.34-13.55,14.94-24.24,27.31-24.91,48.29-17.45-51.81,52.44-71.94,45.63-114.75Z"/><path d="M211.03,384.95c-16.74-15.58-37.39-33.67-38.09-58.34-.53-18.51,11.32-34.57,29.41-38.19,13-2.6,26.48,4.04,31.08,16.24,2.73,7.28,1.24,14.75-2.91,20.43-3.96,5.4-10.81,8.6-17.8,7.43-6.38-1.07-11.25-5.13-13.02-11.06-1.56-5.23.83-12.29,6.36-15.18-4.27,5.08-5.62,11.15-1.54,16.57,3.11,4.13,8.94,6.16,14.82,3.85,5.39-2.11,8.51-7.53,9.16-12.88.67-5.47-1.93-10.96-6.41-14.8-6.69-5.72-15.99-5.56-23.09-.97-7.11,4.58-10,13.16-8.08,21.96,1.62,7.43,6.01,13.44,11.44,18.6l21.5,20.48c9.56,9.1,15.29,21.15,13.68,35.01-2.57-9.28-6.49-17.32-13.6-24.23h.01s-24.12-23.43-24.12-23.43c-7.41-7.2-12.6-15.77-15.03-25.97-3.18,43.23,68.16,57.4,55.14,110.49-2.44-20.85-14.13-32.28-28.89-46.02Z"/><path d="M-50.23-120.57c1.57,10.37,6.02,19.35,12.79,27.15,0,0,22.06,25.38,22.05,25.38,6.5,7.48,9.73,15.82,11.51,25.29,2.77-13.68-1.92-26.17-10.68-36.04l-19.7-22.23c-4.06-4.58-7.39-9.66-9.01-15.48-.36-1.3-.64-2.64-.82-4.02-1.04-7.94,1.69-15.38,7.56-19.72.73-.54,1.51-1.04,2.34-1.48,7.47-3.97,16.75-3.34,22.93,2.92,4.15,4.19,6.27,9.88,5.15,15.28-1.1,5.27-4.67,10.42-10.22,12.07-6.04,1.8-11.69-.72-14.43-5.09-3.61-5.75-1.75-11.68,2.93-16.38-5.76,2.41-8.73,9.24-7.62,14.59,1.26,6.06,5.78,10.51,12.04,12.12,6.87,1.76,13.96-.86,18.37-5.9,4.62-5.32,6.73-12.63,4.62-20.12-3.49-12.29-15.93-19.99-28.83-18.88,7.1-9.99,14.57-20.05,16.32-31.38-3.8,8.34-7.87,15.82-13.79,23.03l-7.54,9.17c-4.49,1.04-8.59,2.88-12.2,5.38l21.9-24.91c10.49-11.93,16.85-26.57,16-42.58-6.58,35.44-40.73,49.65-57.51,78.31-8.22,14.05-9.43,31.58-1.89,46.18,2.36,4.56,5.45,8.82,8.19,13.17,4.03,6.4,8.14,12.65,12.62,18.72,3.45,4.67,6.91,9.34,10.36,14.01,2.35,3.17,4.81,6.29,7.05,9.54C-12.45-7.79-13.31,18.01-35.96,39.88-11.7,28.35-2.21.72-13.95-23.88c-14.2-29.75-46.64-46.77-50.61-82.09.13-4.63.97-9.24,2.5-13.82-.23,1.42-.4,2.87-.48,4.34-1.39,24.64,17.67,44.4,33.03,61.34C-15.96-39.17-5.27-26.8-4.6-5.82,12.85-57.63-57.04-77.76-50.23-120.57Z"/><path d="M50.23-119.63c-1.57,10.37-6.02,19.35-12.79,27.15,0,0-22.06,25.38-22.05,25.38-6.5,7.48-9.73,15.82-11.51,25.29-2.77-13.68,1.92-26.17,10.68-36.04l19.7-22.23c4.06-4.58,7.39-9.66,9.01-15.48.36-1.3.64-2.64.82-4.02,1.04-7.94-1.69-15.38-7.56-19.72-.73-.54-1.51-1.04-2.34-1.48-7.47-3.97-16.75-3.34-22.93,2.92-4.15,4.19-6.27,9.88-5.15,15.28,1.1,5.27,4.67,10.42,10.22,12.07,6.04,1.8,11.69-.72,14.43-5.09,3.61-5.75,1.75-11.68-2.93-16.38,5.76,2.41,8.73,9.24,7.62,14.59-1.26,6.06-5.78,10.51-12.04,12.12-6.87,1.76-13.96-.86-18.37-5.9-4.62-5.32-6.73-12.63-4.62-20.12,3.49-12.29,15.93-19.99,28.83-18.88-7.1-9.99-14.57-20.05-16.32-31.38,3.8,8.34,7.87,15.82,13.79,23.03l7.54,9.17c4.49,1.04,8.59,2.88,12.2,5.38l-21.9-24.91c-10.49-11.93-16.85-26.57-16-42.58,6.58,35.44,40.73,49.65,57.51,78.31,8.22,14.05,9.43,31.58,1.89,46.18-2.36,4.56-5.45,8.82-8.19,13.17-4.03,6.4-8.14,12.65-12.62,18.72-3.45,4.67-6.91,9.34-10.36,14.01-2.35,3.17-4.81,6.29-7.05,9.54C12.45-6.85,13.31,18.95,35.96,40.83,11.7,29.29,2.21,1.67,13.95-22.94c14.2-29.75,46.64-46.77,50.61-82.09-.13-4.63-.97-9.24-2.5-13.82.23,1.42.4,2.87.48,4.34,1.39,24.64-17.67,44.4-33.03,61.34C15.96-38.23,5.27-25.86,4.6-4.88-12.85-56.69,57.04-76.82,50.23-119.63Z"/><path d="M-50.23,98.6c1.57,10.37,6.02,19.35,12.79,27.15,0,0,22.06,25.38,22.05,25.38,6.5,7.48,9.73,15.82,11.51,25.29,2.77-13.68-1.92-26.17-10.68-36.04l-19.7-22.23c-4.06-4.58-7.39-9.66-9.01-15.48-.36-1.3-.64-2.64-.82-4.02-1.04-7.94,1.69-15.38,7.56-19.72.73-.54,1.51-1.04,2.34-1.48,7.47-3.97,16.75-3.34,22.93,2.92,4.15,4.19,6.27,9.88,5.15,15.28-1.1,5.27-4.67,10.42-10.22,12.07-6.04,1.8-11.69-.72-14.43-5.09-3.61-5.75-1.75-11.68,2.93-16.38-5.76,2.41-8.73,9.24-7.62,14.59,1.26,6.06,5.78,10.51,12.04,12.12,6.87,1.76,13.96-.86,18.37-5.9C-.42,101.74,1.69,94.43-.42,86.94c-3.49-12.29-15.93-19.99-28.83-18.88,7.1-9.99,14.57-20.05,16.32-31.38-3.8,8.34-7.87,15.82-13.79,23.03l-7.54,9.17c-4.49,1.04-8.59,2.88-12.2,5.38l21.9-24.91C-14.08,37.42-7.72,22.78-8.57,6.77c-6.58,35.44-40.73,49.65-57.51,78.31-8.22,14.05-9.43,31.58-1.89,46.18,2.36,4.56,5.45,8.82,8.19,13.17,4.03,6.4,8.14,12.65,12.62,18.72,3.45,4.67,6.91,9.34,10.36,14.01,2.35,3.17,4.81,6.29,7.05,9.54,17.31,24.68,16.44,50.49-6.2,72.36,24.26-11.53,33.74-39.16,22.01-63.77-14.2-29.75-46.64-46.77-50.61-82.09.13-4.63.97-9.24,2.5-13.82-.23,1.42-.4,2.87-.48,4.34-1.39,24.64,17.67,44.4,33.03,61.34,13.55,14.94,24.24,27.31,24.91,48.29,17.45-51.81-52.44-71.94-45.63-114.75Z"/><path d="M50.23,99.54c-1.57,10.37-6.02,19.35-12.79,27.15,0,0-22.06,25.38-22.05,25.38-6.5,7.48-9.73,15.82-11.51,25.29-2.77-13.68,1.92-26.17,10.68-36.04l19.7-22.23c4.06-4.58,7.39-9.66,9.01-15.48.36-1.3.64-2.64.82-4.02,1.04-7.94-1.69-15.38-7.56-19.72-.73-.54-1.51-1.04-2.34-1.48-7.47-3.97-16.75-3.34-22.93,2.92-4.15,4.19-6.27,9.88-5.15,15.28,1.1,5.27,4.67,10.42,10.22,12.07,6.04,1.8,11.69-.72,14.43-5.09,3.61-5.75,1.75-11.68-2.93-16.38,5.76,2.41,8.73,9.24,7.62,14.59-1.26,6.06-5.78,10.51-12.04,12.12-6.87,1.76-13.96-.86-18.37-5.9C.42,102.68-1.69,95.37.42,87.88c3.49-12.29,15.93-19.99,28.83-18.88-7.1-9.99-14.57-20.05-16.32-31.38,3.8,8.34,7.87,15.82,13.79,23.03l7.54,9.17c4.49,1.04,8.59,2.88,12.2,5.38l-21.9-24.91C14.08,38.36,7.72,23.72,8.57,7.71c6.58,35.44,40.73,49.65,57.51,78.31,8.22,14.05,9.43,31.58,1.89,46.18-2.36,4.56-5.45,8.82-8.19,13.17-4.03,6.4-8.14,12.65-12.62,18.72-3.45,4.67-6.91,9.34-10.36,14.01-2.35,3.17-4.81,6.29-7.05,9.54-17.31,24.68-16.44,50.49,6.2,72.36-24.26-11.53-33.74-39.16-22.01-63.77,14.2-29.75,46.64-46.77,50.61-82.09-.13-4.63-.97-9.24-2.5-13.82.23,1.42.4,2.87.48,4.34,1.39,24.64-17.67,44.4-33.03,61.34-13.55,14.94-24.24,27.31-24.91,48.29-17.45-51.81,52.44-71.94,45.63-114.75Z"/><path d="M48.03,57.2C31.3,41.62,10.64,23.53,9.95-1.14c-.53-18.51,11.32-34.57,29.41-38.19,13-2.6,26.48,4.04,31.08,16.24,2.73,7.28,1.24,14.75-2.91,20.43-3.96,5.4-10.81,8.6-17.8,7.43-6.38-1.07-11.25-5.13-13.02-11.06-1.56-5.23.83-12.29,6.36-15.18-4.27,5.08-5.62,11.15-1.54,16.57,3.11,4.13,8.94,6.16,14.82,3.85,5.39-2.11,8.51-7.53,9.16-12.88.67-5.47-1.93-10.96-6.41-14.8-6.69-5.72-15.99-5.56-23.09-.97-7.11,4.58-10,13.16-8.08,21.96,1.62,7.43,6.01,13.44,11.44,18.6l21.5,20.48c9.56,9.1,15.29,21.15,13.68,35.01-2.57-9.28-6.49-17.32-13.6-24.23h.01s-24.12-23.43-24.12-23.43c-7.41-7.2-12.6-15.77-15.03-25.97-3.18,43.23,68.16,57.4,55.14,110.49-2.44-20.85-14.13-32.28-28.89-46.02Z"/><path d="M275.77-119.9c1.57,10.37,6.02,19.35,12.79,27.15,0,0,22.06,25.38,22.05,25.38,6.5,7.48,9.73,15.82,11.51,25.29,2.77-13.68-1.92-26.17-10.68-36.04l-19.7-22.23c-4.06-4.58-7.39-9.66-9.01-15.48-.36-1.3-.64-2.64-.82-4.02-1.04-7.94,1.69-15.38,7.56-19.72.73-.54,1.51-1.04,2.34-1.48,7.47-3.97,16.75-3.34,22.93,2.92,4.15,4.19,6.27,9.88,5.15,15.28-1.1,5.27-4.67,10.42-10.22,12.07-6.04,1.8-11.69-.72-14.43-5.09-3.61-5.75-1.75-11.68,2.93-16.38-5.76,2.41-8.73,9.24-7.62,14.59,1.26,6.06,5.78,10.51,12.04,12.12,6.87,1.76,13.96-.86,18.37-5.9,4.62-5.32,6.73-12.63,4.62-20.12-3.49-12.29-15.93-19.99-28.83-18.88,7.1-9.99,14.57-20.05,16.32-31.38-3.8,8.34-7.87,15.82-13.79,23.03l-7.54,9.17c-4.49,1.04-8.59,2.88-12.2,5.38l21.9-24.91c10.49-11.93,16.85-26.57,16-42.58-6.58,35.44-40.73,49.65-57.51,78.31-8.22,14.05-9.43,31.58-1.89,46.18,2.36,4.56,5.45,8.82,8.19,13.17,4.03,6.4,8.14,12.65,12.62,18.72,3.45,4.67,6.91,9.34,10.36,14.01,2.35,3.17,4.81,6.29,7.05,9.54,17.31,24.68,16.44,50.49-6.2,72.36,24.26-11.53,33.74-39.16,22.01-63.77-14.2-29.75-46.64-46.77-50.61-82.09.13-4.63.97-9.24,2.5-13.82-.23,1.42-.4,2.87-.48,4.34-1.39,24.64,17.67,44.4,33.03,61.34,13.55,14.94,24.24,27.31,24.91,48.29,17.45-51.81-52.44-71.94-45.63-114.75Z"/><path d="M376.23-118.96c-1.57,10.37-6.02,19.35-12.79,27.15,0,0-22.06,25.38-22.05,25.38-6.5,7.48-9.73,15.82-11.51,25.29-2.77-13.68,1.92-26.17,10.68-36.04l19.7-22.23c4.06-4.58,7.39-9.66,9.01-15.48.36-1.3.64-2.64.82-4.02,1.04-7.94-1.69-15.38-7.56-19.72-.73-.54-1.51-1.04-2.34-1.48-7.47-3.97-16.75-3.34-22.93,2.92-4.15,4.19-6.27,9.88-5.15,15.28,1.1,5.27,4.67,10.42,10.22,12.07,6.04,1.8,11.69-.72,14.43-5.09,3.61-5.75,1.75-11.68-2.93-16.38,5.76,2.41,8.73,9.24,7.62,14.59-1.26,6.06-5.78,10.51-12.04,12.12-6.87,1.76-13.96-.86-18.37-5.9-4.62-5.32-6.73-12.63-4.62-20.12,3.49-12.29,15.93-19.99,28.83-18.88-7.1-9.99-14.57-20.05-16.32-31.38,3.8,8.34,7.87,15.82,13.79,23.03l7.54,9.17c4.49,1.04,8.59,2.88,12.2,5.38l-21.9-24.91c-10.49-11.93-16.85-26.57-16-42.58,6.58,35.44,40.73,49.65,57.51,78.31,8.22,14.05,9.43,31.58,1.89,46.18-2.36,4.56-5.45,8.82-8.19,13.17-4.03,6.4-8.14,12.65-12.62,18.72-3.45,4.67-6.91,9.34-10.36,14.01-2.35,3.17-4.81,6.29-7.05,9.54-17.31,24.68-16.44,50.49,6.2,72.36-24.26-11.53-33.74-39.16-22.01-63.77,14.2-29.75,46.64-46.77,50.61-82.09-.13-4.63-.97-9.24-2.5-13.82.23,1.42.4,2.87.48,4.34,1.39,24.64-17.67,44.4-33.03,61.34-13.55,14.94-24.24,27.31-24.91,48.29-17.45-51.81,52.44-71.94,45.63-114.75Z"/><path d="M112.77-10.65c1.57,10.37,6.02,19.35,12.79,27.15,0,0,22.06,25.38,22.05,25.38,6.5,7.48,9.73,15.82,11.51,25.29,2.77-13.68-1.92-26.17-10.68-36.04l-19.7-22.23c-4.06-4.58-7.39-9.66-9.01-15.48-.36-1.3-.64-2.64-.82-4.02-1.04-7.94,1.69-15.38,7.56-19.72.73-.54,1.51-1.04,2.34-1.48,7.47-3.97,16.75-3.34,22.93,2.92,4.15,4.19,6.27,9.88,5.15,15.28-1.1,5.27-4.67,10.42-10.22,12.07-6.04,1.8-11.69-.72-14.43-5.09-3.61-5.75-1.75-11.68,2.93-16.38-5.76,2.41-8.73,9.24-7.62,14.59,1.26,6.06,5.78,10.51,12.04,12.12,6.87,1.76,13.96-.86,18.37-5.9,4.62-5.32,6.73-12.63,4.62-20.12-3.49-12.29-15.93-19.99-28.83-18.88,7.1-9.99,14.57-20.05,16.32-31.38-3.8,8.34-7.87,15.82-13.79,23.03l-7.54,9.17c-4.49,1.04-8.59,2.88-12.2,5.38l21.9-24.91c10.49-11.93,16.85-26.57,16-42.58-6.58,35.44-40.73,49.65-57.51,78.31-8.22,14.05-9.43,31.58-1.89,46.18,2.36,4.56,5.45,8.82,8.19,13.17,4.03,6.4,8.14,12.65,12.62,18.72,3.45,4.67,6.91,9.34,10.36,14.01,2.35,3.17,4.81,6.29,7.05,9.54,17.31,24.68,16.44,50.49-6.2,72.36,24.26-11.53,33.74-39.16,22.01-63.77-14.2-29.75-46.64-46.77-50.61-82.09.13-4.63.97-9.24,2.5-13.82-.23,1.42-.4,2.87-.48,4.34-1.39,24.64,17.67,44.4,33.03,61.34,13.55,14.94,24.24,27.31,24.91,48.29,17.45-51.81-52.44-71.94-45.63-114.75Z"/><path d="M213.23-9.71c-1.57,10.37-6.02,19.35-12.79,27.15,0,0-22.06,25.38-22.05,25.38-6.5,7.48-9.73,15.82-11.51,25.29-2.77-13.68,1.92-26.17,10.68-36.04l19.7-22.23c4.06-4.58,7.39-9.66,9.01-15.48.36-1.3.64-2.64.82-4.02,1.04-7.94-1.69-15.38-7.56-19.72-.73-.54-1.51-1.04-2.34-1.48-7.47-3.97-16.75-3.34-22.93,2.92-4.15,4.19-6.27,9.88-5.15,15.28,1.1,5.27,4.67,10.42,10.22,12.07,6.04,1.8,11.69-.72,14.43-5.09,3.61-5.75,1.75-11.68-2.93-16.38,5.76,2.41,8.73,9.24,7.62,14.59-1.26,6.06-5.78,10.51-12.04,12.12-6.87,1.76-13.96-.86-18.37-5.9-4.62-5.32-6.73-12.63-4.62-20.12,3.49-12.29,15.93-19.99,28.83-18.88-7.1-9.99-14.57-20.05-16.32-31.38,3.8,8.34,7.87,15.82,13.79,23.03l7.54,9.17c4.49,1.04,8.59,2.88,12.2,5.38l-21.9-24.91c-10.49-11.93-16.85-26.57-16-42.58,6.58,35.44,40.73,49.65,57.51,78.31,8.22,14.05,9.43,31.58,1.89,46.18-2.36,4.56-5.45,8.82-8.19,13.17-4.03,6.4-8.14,12.65-12.62,18.72-3.45,4.67-6.91,9.34-10.36,14.01-2.35,3.17-4.81,6.29-7.05,9.54-17.31,24.68-16.44,50.49,6.2,72.36-24.26-11.53-33.74-39.16-22.01-63.77,14.2-29.75,46.64-46.77,50.61-82.09-.13-4.63-.97-9.24-2.5-13.82.23,1.42.4,2.87.48,4.34,1.39,24.64-17.67,44.4-33.03,61.34-13.55,14.94-24.24,27.31-24.91,48.29-17.45-51.81,52.44-71.94,45.63-114.75Z"/></pattern></defs><g id="Capa_1-2"><rect class="cls-2" width="5990.65" height="4672.5"/></g></svg>