<?xml version="1.0" encoding="UTF-8"?><svg id="Capa_1" xmlns="http://www.w3.org/2000/svg" width="110.67" height="120.46" xmlns:xlink="http://www.w3.org/1999/xlink" viewBox="0 0 110.67 120.46"><defs><style>.cls-1{fill:#1e211d;}.cls-2{fill:none;}.cls-3{clip-path:url(#clippath);}</style><clipPath id="clippath"><rect class="cls-2" x="10.32" y="15.57" width="90.03" height="89.81"/></clipPath></defs><path class="cls-1" d="M100.48,105.38H10.19V15.08h90.29v90.29ZM11.19,104.38h88.29V16.08H11.19v88.29Z"/><g class="cls-3"><g id="Capa_1-2"><path d="M90.18,75.52c6.4,5.41,13.48,8.05,21.5,9.44-11.53,2.5-22.14-1.33-30.58-8.62l-19-16.4c-4.79-4.14-10.21-7.34-16.59-8.09-7.56-.89-14.54,2.25-17.81,8.6-3.27,6.36-2.64,14.19,2.72,19.35,3.59,3.46,8.43,5.19,12.97,4.18,4.45-.99,8.76-4.06,10.08-8.76,1.45-5.13-.74-9.87-4.46-12.15-4.89-2.98-9.89-1.34-13.81,2.66,1.98-4.89,7.72-7.48,12.25-6.6,5.14,1,8.95,4.77,10.38,10.04,1.56,5.78-.57,11.81-4.78,15.59-4.44,3.96-10.6,5.83-16.95,4.13-10.64-2.87-17.34-13.66-16.22-24.81,1.56-15.52,14.09-26.8,29.7-27.88,20.81-1.45,37.72,14.44,52.21,27.23,12.78,11.28,23.35,20.18,41.09,20.51-43.59,15.32-61.39-43.52-97.49-37.28,8.78,1.21,16.41,4.87,23.08,10.51l21.7,18.36h0Z"/><path d="M181.17,56.94c-9.47,20.63-32.72,28.96-53.65,19.31-25.49-11.76-40.26-39.31-70.61-41.93,13.4-2.04,26.24,2.1,37.14,9.95l26.03,18.72c21.05,14.35,42.85,13.33,61.07-6.05h0Z"/><path d="M161.45,63.17c.49-.19.98-.4,1.48-.61,1.34-.58,3.41-1.65,4.51-2.63-.6.52-1.59,1.73-2.21,2.2-.68.52-1.39,1.01-2.13,1.47-1.4.88-2.88,1.63-4.42,2.24-2.95,1.17-6.09,1.8-9.26,1.93s-6.38-.27-9.47-1.03-6.28-1.97-9.22-3.42c-2.1-1.04-4.12-2.22-6.07-3.53l-21.71-14.55c-6.55-4.39-13.18-7.2-20.5-9.71,22.62,1.25,41.93,29.4,64.62,17.73-4.49,5.37-11.03,5.6-18.52,5.65.12,0,.4.25.5.32.19.13.4.25.59.37.38.24.77.46,1.16.68.77.44,1.56.85,2.36,1.24,1.58.77,3.21,1.43,4.89,1.98,3.31,1.08,6.77,1.7,10.26,1.8s7.12-.33,10.55-1.27c.9-.25,1.76-.54,2.61-.87h0Z"/></g></g></svg>