<?xml version="1.0" encoding="UTF-8"?><svg id="Capa_1" xmlns="http://www.w3.org/2000/svg" width="471.53" height="277.41" viewBox="0 0 471.53 277.41"><path d="M465,273.82H5.89V5.29h459.12v268.53ZM6.89,272.82h457.12V6.29H6.89v266.53Z"/><g id="Capa_1-2"><path d="M70.21,120.73h0v15.52h21.9v-9.85c0-3.13,2.55-5.68,5.68-5.68h0v32.18c0,3.13-2.55,5.68-5.68,5.68h0v-16.93h-21.9v11.3c0,3.12-2.51,5.63-5.62,5.63h0v-32.23c0-3.11,2.52-5.62,5.62-5.62Z"/><path d="M102.44,139.6c0-12.44,8.06-19.74,19.9-19.74s20.01,7.3,20.01,19.64-7.84,19.74-20.01,19.74-19.91-7.3-19.91-19.64h.01ZM136.57,139.6c0-9.19-4.92-14.54-14.23-14.54s-14.17,5.25-14.17,14.54,4.87,14.44,14.17,14.44,14.23-5.35,14.23-14.44Z"/><path d="M146.95,158.53v-37.8h15.09c8.06,0,15.47,2.43,15.47,11.03,0,4.71-2.32,8.11-7.03,9.95l9.52,16.88h-6.49l-8.49-15.63c-1.03.11-2.05.16-3.13.16h-9.35v15.47l-5.57-.06h-.01ZM171.78,131.76c0-3.94-2.22-5.84-9.9-5.84h-9.35v12.01h9.79c7.41,0,9.46-2.01,9.46-6.16h0Z"/><path d="M190.05,120.73h0v37.85h-5.62v-32.23c0-3.11,2.52-5.62,5.62-5.62Z"/><path d="M194.65,154.37l24.06-28.33h-23.69c0-2.93,2.38-5.3,5.3-5.3h26.28v4.27l-24.12,28.33h18.87c2.9,0,5.25,2.34,5.25,5.25h-31.96v-4.21h.01Z"/><path d="M229.68,139.6c0-12.44,8.06-19.74,19.91-19.74s20.01,7.3,20.01,19.64-7.84,19.74-20.01,19.74-19.91-7.3-19.91-19.64ZM263.81,139.6c0-9.19-4.92-14.54-14.23-14.54s-14.17,5.25-14.17,14.54,4.87,14.44,14.17,14.44,14.23-5.35,14.23-14.44Z"/><path d="M274.2,120.73h5.02l22.55,28.83v-23.32c0-3.04,2.47-5.52,5.52-5.52h0v37.85h-4.92l-22.71-28.66v23.2c0,3.02-2.44,5.46-5.46,5.46h0v-37.84Z"/><path d="M329.46,120.73h27.37v5.3h-21.74v10.22h20.45v5.3h-20.45v11.41c0,3.11-2.52,5.62-5.62,5.62h0v-37.84h0Z"/><path d="M367.1,120.73h0v37.85h-5.62v-32.23c0-3.11,2.52-5.62,5.62-5.62Z"/><path d="M386.19,126.03h-14.5c0-2.93,2.38-5.3,5.3-5.3h29.31v5.3h-14.54v32.56h-5.57v-32.56Z"/></g></svg>