<?xml version="1.0" encoding="UTF-8"?><svg id="Capa_1" xmlns="http://www.w3.org/2000/svg" width="466.24" height="236.82" viewBox="0 0 466.24 236.82"><polygon points="166.41 221.95 165.41 221.95 165.41 15.16 12.53 15.16 12.53 221.43 11.53 221.43 11.53 14.16 166.41 14.16 166.41 221.95"/><polygon points="166.41 222.45 162.41 222.45 162.41 221.45 165.41 221.45 165.41 218.45 166.41 218.45 166.41 222.45"/><path d="M155.42,222.45h-6.99v-1h6.99v1ZM141.43,222.45h-6.99v-1h6.99v1ZM127.44,222.45h-6.99v-1h6.99v1ZM113.45,222.45h-6.99v-1h6.99v1ZM99.47,222.45h-6.99v-1h6.99v1ZM85.48,222.45h-6.99v-1h6.99v1ZM71.49,222.45h-6.99v-1h6.99v1ZM57.5,222.45h-6.99v-1h6.99v1ZM43.51,222.45h-6.99v-1h6.99v1ZM29.52,222.45h-6.99v-1h6.99v1Z"/><polygon points="15.53 222.45 11.53 222.45 11.53 218.45 12.53 218.45 12.53 221.45 15.53 221.45 15.53 222.45"/><path d="M12.53,211.5h-1v-6.95h1v6.95ZM12.53,197.61h-1v-6.95h1v6.95ZM12.53,183.71h-1v-6.95h1v6.95ZM12.53,169.81h-1v-6.95h1v6.95ZM12.53,155.92h-1v-6.95h1v6.95ZM12.53,142.02h-1v-6.95h1v6.95ZM12.53,128.12h-1v-6.95h1v6.95ZM12.53,114.23h-1v-6.95h1v6.95ZM12.53,100.33h-1v-6.95h1v6.95ZM12.53,86.43h-1v-6.95h1v6.95ZM12.53,72.54h-1v-6.95h1v6.95ZM12.53,58.64h-1v-6.95h1v6.95Z"/><polygon points="12.53 44.75 11.53 44.75 11.53 40.75 15.53 40.75 15.53 41.75 12.53 41.75 12.53 44.75"/><path d="M155.42,41.75h-6.99v-1h6.99v1ZM141.43,41.75h-6.99v-1h6.99v1ZM127.44,41.75h-6.99v-1h6.99v1ZM113.45,41.75h-6.99v-1h6.99v1ZM99.47,41.75h-6.99v-1h6.99v1ZM85.48,41.75h-6.99v-1h6.99v1ZM71.49,41.75h-6.99v-1h6.99v1ZM57.5,41.75h-6.99v-1h6.99v1ZM43.51,41.75h-6.99v-1h6.99v1ZM29.52,41.75h-6.99v-1h6.99v1Z"/><polygon points="166.41 44.75 165.41 44.75 165.41 41.75 162.41 41.75 162.41 40.75 166.41 40.75 166.41 44.75"/><path d="M166.41,211.5h-1v-6.95h1v6.95ZM166.41,197.61h-1v-6.95h1v6.95ZM166.41,183.71h-1v-6.95h1v6.95ZM166.41,169.81h-1v-6.95h1v6.95ZM166.41,155.92h-1v-6.95h1v6.95ZM166.41,142.02h-1v-6.95h1v6.95ZM166.41,128.12h-1v-6.95h1v6.95ZM166.41,114.23h-1v-6.95h1v6.95ZM166.41,100.33h-1v-6.95h1v6.95ZM166.41,86.43h-1v-6.95h1v6.95ZM166.41,72.54h-1v-6.95h1v6.95ZM166.41,58.64h-1v-6.95h1v6.95Z"/><rect x="71.29" y="195.1" width="33.35" height="3"/><path d="M88.97,174.39c-9.47,0-17.18-7.71-17.18-17.18s7.71-17.18,17.18-17.18,17.18,7.71,17.18,17.18-7.71,17.18-17.18,17.18ZM88.97,141.04c-8.92,0-16.18,7.26-16.18,16.18s7.26,16.18,16.18,16.18,16.18-7.26,16.18-16.18-7.26-16.18-16.18-16.18Z"/><g id="Capa_1-2"><path d="M29.57,104.49h0v5.63h7.94v-3.57c0-1.14.92-2.06,2.06-2.06h0v11.66c0,1.14-.92,2.06-2.06,2.06h0v-6.14h-7.94v4.1c0,1.13-.91,2.04-2.04,2.04h0v-11.69c0-1.13.91-2.04,2.04-2.04Z"/><path d="M41.25,111.33c0-4.51,2.92-7.16,7.21-7.16s7.25,2.65,7.25,7.12-2.84,7.16-7.25,7.16-7.22-2.65-7.22-7.12h0ZM53.62,111.33c0-3.33-1.78-5.27-5.16-5.27s-5.14,1.9-5.14,5.27,1.76,5.24,5.14,5.24,5.16-1.94,5.16-5.24Z"/><path d="M57.39,118.19v-13.7h5.47c2.92,0,5.61.88,5.61,4,0,1.71-.84,2.94-2.55,3.61l3.45,6.12h-2.35l-3.08-5.66c-.37.04-.74.06-1.14.06h-3.39v5.61l-2.02-.02h0ZM66.39,108.49c0-1.43-.8-2.12-3.59-2.12h-3.39v4.35h3.55c2.69,0,3.43-.73,3.43-2.23h0Z"/><path d="M73.01,104.49h0v13.72h-2.04v-11.69c0-1.13.91-2.04,2.04-2.04Z"/><path d="M74.68,116.69l8.72-10.27h-8.59c0-1.06.86-1.92,1.92-1.92h9.53v1.55l-8.74,10.27h6.84c1.05,0,1.9.85,1.9,1.9h-11.59v-1.53h0Z"/><path d="M87.38,111.33c0-4.51,2.92-7.16,7.22-7.16s7.25,2.65,7.25,7.12-2.84,7.16-7.25,7.16-7.22-2.65-7.22-7.12ZM99.75,111.33c0-3.33-1.78-5.27-5.16-5.27s-5.14,1.9-5.14,5.27,1.76,5.24,5.14,5.24,5.16-1.94,5.16-5.24Z"/><path d="M103.52,104.49h1.82l8.18,10.45v-8.45c0-1.1.89-2,2-2h0v13.72h-1.78l-8.23-10.39v8.41c0,1.09-.89,1.98-1.98,1.98h0v-13.72Z"/><path d="M123.55,104.49h9.92v1.92h-7.88v3.7h7.41v1.92h-7.41v4.14c0,1.13-.91,2.04-2.04,2.04h0v-13.72h0Z"/><path d="M137.2,104.49h0v13.72h-2.04v-11.69c0-1.13.91-2.04,2.04-2.04Z"/><path d="M144.12,106.41h-5.26c0-1.06.86-1.92,1.92-1.92h10.63v1.92h-5.27v11.8h-2.02v-11.8Z"/></g><path d="M83.89,152.2h2.12l2.69,6.6.32,1.01.32-1.01,2.66-6.6h2.06v9.53h-1.57l.04-7.72-.69,2.04-2.31,5.67h-1.12l-2.33-5.69-.67-1.99.04,7.68h-1.57v-9.53Z"/><path d="M32.35,147.53h.65v7h-.65v-7Z"/><path d="M34,147.53h.65l4.8,6.13v-6.13h.62v7h-.63l-4.82-6.09v6.09h-.62v-7Z"/><path d="M41.07,147.53h2.79c2.36,0,3.74,1.16,3.74,3.46s-1.48,3.54-3.98,3.54h-2.55v-7ZM46.92,151.01c0-1.86-1-2.91-3.07-2.91h-2.14v5.87h1.92c2.22,0,3.29-1.09,3.29-2.96Z"/><path d="M32.32,158.53h.69l3.3,7h-.72l-.99-2.12h-3.91l-.98,2.12h-.7l3.31-7ZM34.36,162.85l-1.71-3.7-1.7,3.7h3.41Z"/><path d="M37.32,165.52v-6.99h2.75c1.52,0,2.81.44,2.81,1.94,0,.92-.48,1.56-1.48,1.85l1.81,3.21h-.74l-1.69-3.1c-.24.04-.48.05-.74.05h-2.08v3.05h-.64ZM42.21,160.47c0-.88-.58-1.38-2.18-1.38h-2.08v2.83h2.16c1.56,0,2.1-.53,2.1-1.45Z"/><path d="M43.81,162.02c0-2.31,1.48-3.66,3.7-3.66,1.66,0,2.89.73,3.42,2.03h-.72c-.47-.93-1.4-1.47-2.7-1.47-1.93,0-3.03,1.17-3.03,3.1s1.09,3.08,3.03,3.08c1.27,0,2.17-.51,2.65-1.37v-1.55h-2.89v-.57h3.49v3.91h-.6v-.77c-.64.59-1.54.91-2.65.91-2.24,0-3.7-1.34-3.7-3.64Z"/><path d="M120.2,148.06h2.8c1.54,0,2.83.43,2.83,2.05,0,1.51-1.13,2.12-2.86,2.12h-2.13v2.83h-.64v-7ZM125.18,150.12c0-1-.58-1.5-2.22-1.5h-2.12v3.05h2.13c1.66,0,2.21-.57,2.21-1.55Z"/><path d="M126.83,155.05v-6.99h2.75c1.52,0,2.81.44,2.81,1.94,0,.92-.48,1.56-1.48,1.85l1.81,3.21h-.74l-1.69-3.1c-.24.04-.48.05-.74.05h-2.08v3.05h-.64ZM131.73,150c0-.88-.58-1.38-2.18-1.38h-2.08v2.83h2.16c1.56,0,2.1-.53,2.1-1.45Z"/><path d="M133.32,151.55c0-2.31,1.48-3.66,3.7-3.66s3.71,1.34,3.71,3.64-1.44,3.66-3.71,3.66-3.7-1.34-3.7-3.64ZM140.06,151.55c0-1.91-1.11-3.1-3.04-3.1s-3.03,1.17-3.03,3.1,1.09,3.08,3.03,3.08,3.04-1.2,3.04-3.08Z"/><path d="M141.73,148.06h2.79c2.36,0,3.74,1.16,3.74,3.46s-1.48,3.54-3.98,3.54h-2.55v-7ZM147.59,151.54c0-1.86-1-2.91-3.07-2.91h-2.14v5.87h1.92c2.22,0,3.29-1.09,3.29-2.96Z"/><path d="M150.32,154.61c0,.68-1.06.67-1.06,0s1.06-.7,1.06,0Z"/><path d="M121.26,164.12h-1.11v-.54h1.21l.34-1.73h-1.2v-.54h1.31l.38-1.93h.56l-.38,1.93h1.32l.38-1.93h.56l-.38,1.93h.96v.54h-1.06l-.34,1.73h1.05v.54h-1.15l-.37,1.89h-.57l.37-1.89h-1.32l-.36,1.89h-.57l.37-1.89ZM123.24,163.58l.34-1.73h-1.32l-.34,1.73h1.32Z"/><path d="M130.19,164.26h-3.98v-.48l3.97-4.49h.6v4.45h1.16v.52h-1.16v1.75h-.59v-1.75ZM130.19,159.99l-3.28,3.75h3.27v.02-3.77Z"/><path d="M134.5,164.09c.64-.46,1.13-.85,1.47-1.16.76-.67,1.06-1.2,1.06-1.83,0-.9-.66-1.43-1.79-1.43s-1.73.52-1.79,1.34h-.64c.04-1.13.93-1.91,2.43-1.91s2.43.77,2.43,1.95c0,1.02-.63,1.69-1.37,2.33-.35.31-.77.64-1.28,1.02l-1.46,1.07h4.03v.56h-4.95v-.56c.65-.46,1.27-.93,1.86-1.38Z"/><path d="M138.57,164.14h.64c0,.97.68,1.5,1.95,1.51,1.27,0,1.95-.54,1.95-1.46,0-.83-.53-1.29-1.57-1.38v-.6c.92-.11,1.4-.59,1.4-1.3,0-.79-.61-1.24-1.79-1.25-1.18,0-1.79.46-1.79,1.35h-.63c0-1.21.83-1.91,2.42-1.91s2.42.71,2.42,1.75c0,.79-.42,1.31-1.16,1.61.87.27,1.34.85,1.34,1.7,0,1.24-.88,2.04-2.59,2.04s-2.59-.8-2.59-2.06Z"/><path d="M148.63,164.26h-3.98v-.48l3.97-4.49h.6v4.45h1.16v.52h-1.16v1.75h-.59v-1.75ZM148.63,159.99l-3.28,3.75h3.27v.02-3.77Z"/></svg>