<?xml version="1.0" encoding="UTF-8"?><svg id="Capa_1" xmlns="http://www.w3.org/2000/svg" width="471.53" height="95.95" viewBox="0 0 471.53 95.95"><defs><style>.cls-1{fill:#1e211d;}</style></defs><path d="M467.85,87.62H8.22V10.38h459.63v77.24ZM9.22,86.62h457.63V11.38H9.22v75.24Z"/><rect class="cls-1" x="306.32" y="24.35" width="1" height="49.29"/><g id="Capa_1-2"><path d="M57.93,36.72h0v8.93h12.6v-5.67c0-1.8,1.46-3.27,3.27-3.27h0v18.51c0,1.8-1.46,3.27-3.27,3.27h0v-9.74h-12.6v6.5c0,1.8-1.45,3.24-3.23,3.24h0v-18.54c0-1.79,1.45-3.23,3.23-3.23Z"/><path d="M76.47,47.57c0-7.16,4.63-11.36,11.45-11.36s11.51,4.2,11.51,11.3-4.51,11.36-11.51,11.36-11.45-4.2-11.45-11.3h0ZM96.11,47.57c0-5.29-2.83-8.37-8.19-8.37s-8.15,3.02-8.15,8.37,2.8,8.31,8.15,8.31,8.19-3.08,8.19-8.31Z"/><path d="M102.08,58.46v-21.75h8.68c4.63,0,8.9,1.4,8.9,6.35,0,2.71-1.34,4.67-4.04,5.72l5.48,9.71h-3.73l-4.89-8.99c-.59.06-1.18.09-1.8.09h-5.38v8.9l-3.2-.03h0ZM116.36,43.06c0-2.27-1.28-3.36-5.7-3.36h-5.38v6.91h5.63c4.27,0,5.44-1.15,5.44-3.55h0Z"/><path d="M126.88,36.72h0v21.78h-3.23v-18.54c0-1.79,1.45-3.23,3.23-3.23Z"/><path d="M129.52,56.07l13.85-16.3h-13.63c0-1.69,1.37-3.05,3.05-3.05h15.12v2.46l-13.88,16.3h10.86c1.67,0,3.02,1.35,3.02,3.02h-18.39v-2.42h0Z"/><path d="M149.68,47.57c0-7.16,4.63-11.36,11.45-11.36s11.51,4.2,11.51,11.3-4.51,11.36-11.51,11.36-11.45-4.2-11.45-11.3ZM169.31,47.57c0-5.29-2.83-8.37-8.19-8.37s-8.15,3.02-8.15,8.37,2.8,8.31,8.15,8.31,8.19-3.08,8.19-8.31Z"/><path d="M175.29,36.72h2.89l12.98,16.59v-13.42c0-1.75,1.42-3.18,3.18-3.18h0v21.78h-2.83l-13.07-16.49v13.35c0,1.74-1.41,3.14-3.14,3.14h0v-21.77Z"/><path d="M207.08,36.72h15.74v3.05h-12.51v5.88h11.76v3.05h-11.76v6.57c0,1.79-1.45,3.23-3.23,3.23h0v-21.77h0Z"/><path d="M228.74,36.72h0v21.78h-3.23v-18.54c0-1.79,1.45-3.23,3.23-3.23Z"/><path d="M239.72,39.76h-8.34c0-1.69,1.37-3.05,3.05-3.05h16.87v3.05h-8.37v18.73h-3.2v-18.73Z"/></g><path d="M379.9,41.67h3.32l4.22,10.36.51,1.58.51-1.58,4.18-10.36h3.23v14.96h-2.46l.07-12.12-1.08,3.21-3.63,8.91h-1.76l-3.65-8.93-1.06-3.12.07,12.06h-2.46v-14.96Z"/></svg>