<?xml version="1.0" encoding="UTF-8"?><svg id="Capa_1" xmlns="http://www.w3.org/2000/svg" width="221.03" height="120.46" xmlns:xlink="http://www.w3.org/1999/xlink" viewBox="0 0 221.03 120.46"><defs><style>.cls-1{fill:#1e211d;}.cls-2{fill:none;}.cls-3{clip-path:url(#clippath);}</style><clipPath id="clippath"><rect class="cls-2" x="-120.35" y="15.57" width="90.03" height="89.81"/></clipPath></defs><path class="cls-1" d="M200.34,105.49H20.05V15.19h180.29v90.29ZM21.05,104.49h178.29V16.19H21.05v88.29Z"/><g class="cls-3"><g id="Capa_1-2"><path d="M-40.49,75.52c6.4,5.41,13.48,8.05,21.5,9.44-11.53,2.5-22.14-1.33-30.58-8.62l-19-16.4c-4.79-4.14-10.21-7.34-16.59-8.09-7.56-.89-14.54,2.25-17.81,8.6-3.27,6.36-2.64,14.19,2.72,19.35,3.59,3.46,8.43,5.19,12.97,4.18,4.45-.99,8.76-4.06,10.08-8.76,1.45-5.13-.74-9.87-4.46-12.15-4.89-2.98-9.89-1.34-13.81,2.66,1.98-4.89,7.72-7.48,12.25-6.6,5.14,1,8.95,4.77,10.38,10.04,1.56,5.78-.57,11.81-4.78,15.59-4.44,3.96-10.6,5.83-16.95,4.13-10.64-2.87-17.34-13.66-16.22-24.81,1.56-15.52,14.09-26.8,29.7-27.88,20.81-1.45,37.72,14.44,52.21,27.23,12.78,11.28,23.35,20.18,41.09,20.51-43.59,15.32-61.39-43.52-97.49-37.28,8.78,1.21,16.41,4.87,23.08,10.51l21.7,18.36h0Z"/><path d="M50.49,56.94c-9.47,20.63-32.72,28.96-53.65,19.31-25.49-11.76-40.26-39.31-70.61-41.93,13.4-2.04,26.24,2.1,37.14,9.95l26.03,18.72c21.05,14.35,42.85,13.33,61.07-6.05h0Z"/><path d="M30.78,63.17c.49-.19.98-.4,1.48-.61,1.34-.58,3.41-1.65,4.51-2.63-.6.52-1.59,1.73-2.21,2.2-.68.52-1.39,1.01-2.13,1.47-1.4.88-2.88,1.63-4.42,2.24-2.95,1.17-6.09,1.8-9.26,1.93s-6.38-.27-9.47-1.03-6.28-1.97-9.22-3.42c-2.1-1.04-4.12-2.22-6.07-3.53l-21.71-14.55c-6.55-4.39-13.18-7.2-20.5-9.71,22.62,1.25,41.93,29.4,64.62,17.73-4.49,5.37-11.03,5.6-18.52,5.65.12,0,.4.25.5.32.19.13.4.25.59.37.38.24.77.46,1.16.68.77.44,1.56.85,2.36,1.24,1.58.77,3.21,1.43,4.89,1.98,3.31,1.08,6.77,1.7,10.26,1.8s7.12-.33,10.55-1.27c.9-.25,1.76-.54,2.61-.87h0Z"/></g></g><g id="Capa_1-2-2"><path d="M100.18,73.42c6.25,5.29,13.17,7.86,21.01,9.23-11.27,2.44-21.63-1.3-29.88-8.42l-18.57-16.02c-4.68-4.05-9.98-7.17-16.21-7.9-7.39-.87-14.21,2.2-17.4,8.41-3.2,6.21-2.58,13.87,2.66,18.9,3.51,3.38,8.23,5.07,12.68,4.08,4.34-.97,8.56-3.96,9.85-8.56,1.42-5.01-.72-9.65-4.36-11.87-4.78-2.92-9.66-1.31-13.5,2.6,1.93-4.78,7.54-7.31,11.97-6.45,5.02.97,8.75,4.66,10.14,9.81,1.53,5.65-.55,11.54-4.67,15.23-4.34,3.87-10.36,5.7-16.56,4.04-10.4-2.8-16.94-13.35-15.85-24.24,1.52-15.16,13.77-26.19,29.02-27.25,20.33-1.41,36.86,14.11,51.02,26.61,12.49,11.03,22.82,19.71,40.16,20.04-42.59,14.97-59.99-42.53-95.26-36.43,8.58,1.18,16.04,4.76,22.56,10.27l21.2,17.94h0Z"/><path d="M189.09,55.26c-9.26,20.16-31.97,28.3-52.42,18.87-24.91-11.49-39.34-38.41-69-40.97,13.09-1.99,25.64,2.06,36.29,9.72l25.44,18.29c20.57,14.02,41.87,13.02,59.68-5.91h0Z"/><path d="M169.82,61.34c.48-.19.96-.39,1.45-.59,1.31-.57,3.33-1.61,4.41-2.57-.59.51-1.55,1.69-2.16,2.15-.67.51-1.36.99-2.08,1.44-1.37.86-2.82,1.59-4.32,2.19-2.88,1.15-5.95,1.76-9.05,1.88s-6.24-.26-9.26-1.01-6.14-1.92-9.01-3.34c-2.05-1.02-4.03-2.17-5.93-3.45l-21.22-14.21c-6.4-4.29-12.88-7.04-20.04-9.49,22.1,1.22,40.97,28.72,63.15,17.33-4.39,5.24-10.78,5.48-18.1,5.52.12,0,.39.25.49.31.19.12.39.25.58.36.37.23.75.45,1.13.67.75.43,1.52.83,2.3,1.21,1.54.75,3.14,1.4,4.77,1.93,3.24,1.06,6.62,1.66,10.03,1.76s6.95-.32,10.31-1.24c.88-.24,1.72-.53,2.55-.85h0Z"/></g></svg>