<?xml version="1.0" encoding="UTF-8"?><svg id="Capa_2" xmlns="http://www.w3.org/2000/svg" width="190.96" height="65.91" viewBox="0 0 190.96 65.91" fill="currentColor"><g id="Capa_1-2"><path d="M83.31,49.36c7.57,6.4,15.95,9.52,25.44,11.17-13.64,2.96-26.19-1.57-36.18-10.2l-22.48-19.4c-5.67-4.9-12.08-8.68-19.63-9.57-8.95-1.05-17.2,2.66-21.07,10.18s-3.12,16.79,3.22,22.89c4.25,4.09,9.97,6.14,15.35,4.94,5.26-1.17,10.36-4.8,11.93-10.37,1.72-6.07-.87-11.68-5.28-14.37-5.79-3.53-11.7-1.59-16.34,3.15,2.34-5.79,9.13-8.85,14.49-7.81,6.08,1.18,10.59,5.64,12.28,11.88,1.85,6.84-.67,13.97-5.66,18.44-5.25,4.69-12.54,6.9-20.05,4.89C6.74,61.79-1.18,49.02.14,35.83,1.98,17.47,16.81,4.12,35.28,2.84c24.62-1.71,44.63,17.08,61.77,32.22,15.12,13.35,27.63,23.87,48.62,24.27C94.1,77.46,73.04,7.84,30.33,15.22c10.39,1.43,19.42,5.76,27.31,12.43l25.67,21.72Z"/><path d="M190.96,27.37c-11.21,24.41-38.71,34.26-63.47,22.85C97.33,36.31,79.86,3.71,43.95.61c15.85-2.41,31.04,2.49,43.94,11.77l30.8,22.15c24.91,16.98,50.7,15.77,72.26-7.16Z"/><path d="M167.63,34.74c.58-.23,1.16-.47,1.75-.72,1.59-.69,4.03-1.95,5.34-3.11-.71.62-1.88,2.05-2.61,2.6-.81.62-1.65,1.2-2.52,1.74-1.66,1.04-3.41,1.93-5.23,2.65-3.49,1.39-7.21,2.13-10.96,2.28s-7.55-.32-11.21-1.22-7.43-2.33-10.91-4.05c-2.48-1.23-4.88-2.63-7.18-4.18l-25.69-17.21c-7.75-5.19-15.59-8.52-24.26-11.49,26.76,1.48,49.61,34.78,76.46,20.98-5.31,6.35-13.05,6.63-21.91,6.68.14,0,.47.3.59.38.23.15.47.3.7.44.45.28.91.55,1.37.81.91.52,1.84,1.01,2.79,1.47,1.87.91,3.8,1.69,5.78,2.34,3.92,1.28,8.01,2.01,12.14,2.13s8.42-.39,12.48-1.5c1.07-.29,2.08-.64,3.09-1.03Z"/></g></svg>