<?xml version="1.0" encoding="UTF-8"?><svg id="Capa_2" xmlns="http://www.w3.org/2000/svg" width="303.31" height="34.95" viewBox="0 0 303.31 34.95" fill="currentColor"><g id="Capa_1-2"><path d="M4.99.77h0v13.78h19.44V5.81c0-2.78,2.26-5.04,5.04-5.04h0v28.56c0,2.78-2.26,5.04-5.04,5.04h0v-15.03H4.99v10.03C4.99,32.14,2.76,34.37,0,34.37h0V5.76C0,3,2.24.77,4.99.77Z"/><path d="M33.6,17.52C33.6,6.48,40.75,0,51.26,0s17.76,6.48,17.76,17.43-6.96,17.52-17.76,17.52-17.67-6.48-17.67-17.43ZM63.89,17.52c0-8.16-4.37-12.91-12.63-12.91s-12.58,4.66-12.58,12.91,4.32,12.82,12.58,12.82,12.63-4.75,12.63-12.82Z"/><path d="M73.1,34.32V.77h13.39c7.15,0,13.73,2.16,13.73,9.79,0,4.18-2.06,7.2-6.24,8.83l8.45,14.98h-5.76l-7.54-13.87c-.91.1-1.82.14-2.78.14h-8.3v13.73l-4.94-.05ZM95.14,10.56c0-3.5-1.97-5.18-8.79-5.18h-8.3v10.66h8.69c6.58,0,8.4-1.78,8.4-5.47Z"/><path d="M111.36.77h0v33.6h-4.99V5.76c0-2.76,2.24-4.99,4.99-4.99Z"/><path d="M115.44,30.63l21.36-25.15h-21.03c0-2.6,2.11-4.7,4.7-4.7h23.33v3.79l-21.41,25.15h16.75c2.57,0,4.66,2.08,4.66,4.66h0s-28.37,0-28.37,0v-3.74Z"/><path d="M146.54,17.52c0-11.04,7.15-17.52,17.67-17.52s17.76,6.48,17.76,17.43-6.96,17.52-17.76,17.52-17.67-6.48-17.67-17.43ZM176.83,17.52c0-8.16-4.37-12.91-12.63-12.91s-12.58,4.66-12.58,12.91,4.32,12.82,12.58,12.82,12.63-4.75,12.63-12.82Z"/><path d="M186.05.77h4.46l20.02,25.59V5.66c0-2.7,2.19-4.9,4.9-4.9h0v33.6h-4.37l-20.16-25.44v20.59c0,2.68-2.17,4.85-4.85,4.85h0V.77Z"/><path d="M235.1.77h24.29v4.7h-19.3v9.07h18.15v4.7h-18.15v10.13c0,2.76-2.24,4.99-4.99,4.99h0V.77Z"/><path d="M268.51.77h0v33.6h-4.99V5.76c0-2.76,2.24-4.99,4.99-4.99Z"/><path d="M285.46,5.47h-12.87c0-2.6,2.11-4.7,4.7-4.7h26.02v4.7h-12.91v28.9h-4.94V5.47Z"/></g></svg>